<?xml version="1.0" encoding="utf-8"?>
<!-- Generator: Adobe Illustrator 22.1.0, SVG Export Plug-In . SVG Version: 6.00 Build 0)  -->
<svg version="1.1" id="OBJECT" xmlns="http://www.w3.org/2000/svg" xmlns:xlink="http://www.w3.org/1999/xlink" x="0px" y="0px"
	 viewBox="0 0 3555.6 2000" style="enable-background:new 0 0 3555.6 2000;" xml:space="preserve">
<style type="text/css">
	.st0{fill:url(#SVGID_1_);}
	.st1{fill:url(#SVGID_2_);}
	.st2{fill:url(#SVGID_3_);}
	.st3{fill:url(#SVGID_4_);}
	.st4{fill:url(#SVGID_5_);}
	.st5{fill:url(#SVGID_6_);}
	.st6{fill:url(#SVGID_7_);}
	.st7{fill:url(#SVGID_8_);}
	.st8{fill:url(#SVGID_9_);}
	.st9{opacity:0.5;fill:none;stroke:#FFFFFF;stroke-width:7.2;stroke-miterlimit:10;}
	.st10{fill:#FFFFFF;}
	.st11{opacity:0.5;fill:#FFFFFF;}
</style>
<g>
	
		<radialGradient id="SVGID_1_" cx="1777.7778" cy="3307.5901" r="1922.5602" gradientTransform="matrix(1 0 0 0.7802 0 -1580.5818)" gradientUnits="userSpaceOnUse">
		<stop  offset="0" style="stop-color:#4169E1"/>
		<stop  offset="0.4136" style="stop-color:#4165E1"/>
		<stop  offset="0.8013" style="stop-color:#415AE1"/>
		<stop  offset="1" style="stop-color:#4151E1"/>
	</radialGradient>
	<rect x="0" class="st0" width="3555.6" height="2000"/>
	<g>
		<linearGradient id="SVGID_2_" gradientUnits="userSpaceOnUse" x1="1996.0144" y1="-131.5209" x2="1679.3649" y2="646.2166">
			<stop  offset="0" style="stop-color:#4151E1"/>
			<stop  offset="0.1987" style="stop-color:#415AE1"/>
			<stop  offset="0.5864" style="stop-color:#4165E1"/>
			<stop  offset="1" style="stop-color:#4169E1"/>
		</linearGradient>
		<path class="st1" d="M3555.6,0v809c-246.6,58.6-528,72.4-777.8-57.1c-344.2-178.5-350.9-485.1-625.9-540.7
			c-364.7-73.7-546.3,492.1-1066.7,540.7C571.3,799.9,182.7,588.9,0,463.7V0H3555.6z"/>
		<linearGradient id="SVGID_3_" gradientUnits="userSpaceOnUse" x1="1.214406e-05" y1="386.5086" x2="1596.3705" y2="386.5086">
			<stop  offset="0" style="stop-color:#4151E1"/>
			<stop  offset="0.1987" style="stop-color:#415AE1"/>
			<stop  offset="0.5864" style="stop-color:#4165E1"/>
			<stop  offset="1" style="stop-color:#4169E1"/>
		</linearGradient>
		<path class="st2" d="M1596.4,0c-60.4,27.5-118.8,59-174.2,93c-271.1,166.4-504.3,391.6-785.6,540.1
			C443.2,735.2,211.7,795.1,0,765.4V0H1596.4z"/>
		<linearGradient id="SVGID_4_" gradientUnits="userSpaceOnUse" x1="2437.1482" y1="531.4815" x2="3555.5557" y2="531.4815">
			<stop  offset="0" style="stop-color:#4151E1"/>
			<stop  offset="0.1987" style="stop-color:#415AE1"/>
			<stop  offset="0.5864" style="stop-color:#4165E1"/>
			<stop  offset="1" style="stop-color:#4169E1"/>
		</linearGradient>
		<path class="st3" d="M3555.6,0v1063C3326,928.3,3119.1,755.4,2948,551.5C2786.4,359,2645,131.6,2437.1,0H3555.6z"/>
		<linearGradient id="SVGID_5_" gradientUnits="userSpaceOnUse" x1="807.7038" y1="408.4933" x2="2748.4817" y2="408.4933">
			<stop  offset="0" style="stop-color:#4151E1"/>
			<stop  offset="0.1987" style="stop-color:#415AE1"/>
			<stop  offset="0.5864" style="stop-color:#4165E1"/>
			<stop  offset="1" style="stop-color:#4169E1"/>
		</linearGradient>
		<path class="st4" d="M2748.5,300c-140.3,4-278.9,33.6-405.8,93.8c-144.3,68.4-268.2,172.5-401.2,261
			c-133,88.5-283.4,163.8-443.2,162.3c-251.6-2.4-457-189.2-690.6-286c209.4-138.1,400.1-306.4,614.4-438
			c55.4-34,113.9-65.5,174.2-93h840.8C2557.6,76.3,2655.8,184.7,2748.5,300z"/>
	</g>
	<g>
		
			<linearGradient id="SVGID_6_" gradientUnits="userSpaceOnUse" x1="1996.4587" y1="71.4791" x2="1679.8092" y2="849.2166" gradientTransform="matrix(-1 0 0 -1 3556 2203)">
			<stop  offset="0" style="stop-color:#4151E1"/>
			<stop  offset="0.1987" style="stop-color:#415AE1"/>
			<stop  offset="0.5864" style="stop-color:#4165E1"/>
			<stop  offset="1" style="stop-color:#4169E1"/>
		</linearGradient>
		<path class="st5" d="M0,2000v-809c246.6-58.6,528-72.4,777.8,57.1c344.2,178.5,350.9,485.1,625.9,540.7
			c364.7,73.7,546.3-492.1,1066.7-540.7c513.9-48,902.5,162.9,1085.2,288.2V2000H0z"/>
		
			<linearGradient id="SVGID_7_" gradientUnits="userSpaceOnUse" x1="0.4444" y1="589.5086" x2="1596.8149" y2="589.5086" gradientTransform="matrix(-1 0 0 -1 3556 2203)">
			<stop  offset="0" style="stop-color:#4151E1"/>
			<stop  offset="0.1987" style="stop-color:#415AE1"/>
			<stop  offset="0.5864" style="stop-color:#4165E1"/>
			<stop  offset="1" style="stop-color:#4169E1"/>
		</linearGradient>
		<path class="st6" d="M1959.2,2000c60.4-27.5,118.8-59,174.2-93c271.1-166.4,504.3-391.6,785.6-540.1
			c193.3-102.1,424.8-162,636.5-132.2V2000H1959.2z"/>
		
			<linearGradient id="SVGID_8_" gradientUnits="userSpaceOnUse" x1="2437.5928" y1="734.4815" x2="3556" y2="734.4815" gradientTransform="matrix(-1 0 0 -1 3556 2203)">
			<stop  offset="0" style="stop-color:#4151E1"/>
			<stop  offset="0.1987" style="stop-color:#415AE1"/>
			<stop  offset="0.5864" style="stop-color:#4165E1"/>
			<stop  offset="1" style="stop-color:#4169E1"/>
		</linearGradient>
		<path class="st7" d="M0,2000V937c229.5,134.6,436.5,307.6,607.6,511.4c161.6,192.5,303,419.9,510.9,551.5H0z"/>
		
			<linearGradient id="SVGID_9_" gradientUnits="userSpaceOnUse" x1="808.1482" y1="611.4932" x2="2748.926" y2="611.4932" gradientTransform="matrix(-1 0 0 -1 3556 2203)">
			<stop  offset="0" style="stop-color:#4151E1"/>
			<stop  offset="0.1987" style="stop-color:#415AE1"/>
			<stop  offset="0.5864" style="stop-color:#4165E1"/>
			<stop  offset="1" style="stop-color:#4169E1"/>
		</linearGradient>
		<path class="st8" d="M807.1,1700c140.3-4,278.9-33.6,405.8-93.8c144.3-68.4,268.2-172.5,401.2-261
			c133-88.5,283.4-163.8,443.2-162.3c251.6,2.4,457,189.2,690.6,286c-209.4,138.1-400.1,306.4-614.4,438
			c-55.4,34-113.9,65.5-174.2,93h-840.8C998,1923.7,899.8,1815.3,807.1,1700z"/>
	</g>
	<g>
		<g>
			<circle class="st9" cx="725" cy="416.2" r="72"/>
			<circle class="st9" cx="2796.6" cy="1582.8" r="72"/>
			<polygon class="st9" points="257.3,952.7 203.5,1046 311.2,1046 			"/>
			<polygon class="st9" points="3272.7,1046 3326.6,952.7 3218.9,952.7 			"/>
			<g id="XMLID_35_">
				<g id="XMLID_58_">
					<path id="XMLID_59_" class="st10" d="M3207.8,203.1c-3.2,0-5.8-2.6-5.8-5.8l0,0c0-3.2,2.6-5.8,5.8-5.8l0,0
						c3.2,0,5.8,2.6,5.8,5.8l0,0C3213.7,200.5,3211,203.1,3207.8,203.1z M3207.8,263c-3.2,0-5.8-2.6-5.8-5.8l0,0
						c0-3.2,2.6-5.8,5.8-5.8l0,0c3.2,0,5.8,2.6,5.8,5.8l0,0C3213.7,260.4,3211,263,3207.8,263z M3207.8,322.9
						c-3.2,0-5.8-2.6-5.8-5.8l0,0c0-3.2,2.6-5.8,5.8-5.8l0,0c3.2,0,5.8,2.6,5.8,5.8l0,0C3213.7,320.3,3211,322.9,3207.8,322.9z
						 M3207.8,382.7c-3.2,0-5.8-2.6-5.8-5.8l0,0c0-3.2,2.6-5.8,5.8-5.8l0,0c3.2,0,5.8,2.6,5.8,5.8l0,0
						C3213.7,380.1,3211,382.7,3207.8,382.7z M3207.8,442.6c-3.2,0-5.8-2.6-5.8-5.8l0,0c0-3.2,2.6-5.8,5.8-5.8l0,0
						c3.2,0,5.8,2.6,5.8,5.8l0,0C3213.7,440,3211,442.6,3207.8,442.6z M3207.8,502.5c-3.2,0-5.8-2.6-5.8-5.8l0,0
						c0-3.2,2.6-5.8,5.8-5.8l0,0c3.2,0,5.8,2.6,5.8,5.8l0,0C3213.7,499.9,3211,502.5,3207.8,502.5z M3207.8,562.4
						c-3.2,0-5.8-2.6-5.8-5.8l0,0c0-3.2,2.6-5.8,5.8-5.8l0,0c3.2,0,5.8,2.6,5.8,5.8l0,0C3213.7,559.8,3211,562.4,3207.8,562.4z
						 M3207.8,622.3c-3.2,0-5.8-2.6-5.8-5.8l0,0c0-3.2,2.6-5.8,5.8-5.8l0,0c3.2,0,5.8,2.6,5.8,5.8l0,0
						C3213.7,619.7,3211,622.3,3207.8,622.3z M3207.8,682.2c-3.2,0-5.8-2.6-5.8-5.8l0,0c0-3.2,2.6-5.8,5.8-5.8l0,0
						c3.2,0,5.8,2.6,5.8,5.8l0,0C3213.7,679.6,3211,682.2,3207.8,682.2z"/>
				</g>
				<g id="XMLID_47_">
					<path id="XMLID_48_" class="st10" d="M3277,203.1c-3.2,0-5.8-2.6-5.8-5.8l0,0c0-3.2,2.6-5.8,5.8-5.8l0,0c3.2,0,5.8,2.6,5.8,5.8
						l0,0C3282.9,200.5,3280.2,203.1,3277,203.1z M3277,263c-3.2,0-5.8-2.6-5.8-5.8l0,0c0-3.2,2.6-5.8,5.8-5.8l0,0
						c3.2,0,5.8,2.6,5.8,5.8l0,0C3282.9,260.4,3280.2,263,3277,263z M3277,322.9c-3.2,0-5.8-2.6-5.8-5.8l0,0c0-3.2,2.6-5.8,5.8-5.8
						l0,0c3.2,0,5.8,2.6,5.8,5.8l0,0C3282.9,320.3,3280.2,322.9,3277,322.9z M3277,382.7c-3.2,0-5.8-2.6-5.8-5.8l0,0
						c0-3.2,2.6-5.8,5.8-5.8l0,0c3.2,0,5.8,2.6,5.8,5.8l0,0C3282.9,380.1,3280.2,382.7,3277,382.7z M3277,442.6
						c-3.2,0-5.8-2.6-5.8-5.8l0,0c0-3.2,2.6-5.8,5.8-5.8l0,0c3.2,0,5.8,2.6,5.8,5.8l0,0C3282.9,440,3280.2,442.6,3277,442.6z
						 M3277,502.5c-3.2,0-5.8-2.6-5.8-5.8l0,0c0-3.2,2.6-5.8,5.8-5.8l0,0c3.2,0,5.8,2.6,5.8,5.8l0,0
						C3282.9,499.9,3280.2,502.5,3277,502.5z M3277,562.4c-3.2,0-5.8-2.6-5.8-5.8l0,0c0-3.2,2.6-5.8,5.8-5.8l0,0
						c3.2,0,5.8,2.6,5.8,5.8l0,0C3282.9,559.8,3280.2,562.4,3277,562.4z M3277,622.3c-3.2,0-5.8-2.6-5.8-5.8l0,0
						c0-3.2,2.6-5.8,5.8-5.8l0,0c3.2,0,5.8,2.6,5.8,5.8l0,0C3282.9,619.7,3280.2,622.3,3277,622.3z M3277,682.2
						c-3.2,0-5.8-2.6-5.8-5.8l0,0c0-3.2,2.6-5.8,5.8-5.8l0,0c3.2,0,5.8,2.6,5.8,5.8l0,0C3282.9,679.6,3280.2,682.2,3277,682.2z"/>
				</g>
				<g id="XMLID_36_">
					<path id="XMLID_37_" class="st10" d="M3346.3,203.1c-3.2,0-5.8-2.6-5.8-5.8l0,0c0-3.2,2.6-5.8,5.8-5.8l0,0
						c3.2,0,5.8,2.6,5.8,5.8l0,0C3352.1,200.5,3349.5,203.1,3346.3,203.1z M3346.3,263c-3.2,0-5.8-2.6-5.8-5.8l0,0
						c0-3.2,2.6-5.8,5.8-5.8l0,0c3.2,0,5.8,2.6,5.8,5.8l0,0C3352.1,260.4,3349.5,263,3346.3,263z M3346.3,322.9
						c-3.2,0-5.8-2.6-5.8-5.8l0,0c0-3.2,2.6-5.8,5.8-5.8l0,0c3.2,0,5.8,2.6,5.8,5.8l0,0C3352.1,320.3,3349.5,322.9,3346.3,322.9z
						 M3346.3,382.7c-3.2,0-5.8-2.6-5.8-5.8l0,0c0-3.2,2.6-5.8,5.8-5.8l0,0c3.2,0,5.8,2.6,5.8,5.8l0,0
						C3352.1,380.1,3349.5,382.7,3346.3,382.7z M3346.3,442.6c-3.2,0-5.8-2.6-5.8-5.8l0,0c0-3.2,2.6-5.8,5.8-5.8l0,0
						c3.2,0,5.8,2.6,5.8,5.8l0,0C3352.1,440,3349.5,442.6,3346.3,442.6z M3346.3,502.5c-3.2,0-5.8-2.6-5.8-5.8l0,0
						c0-3.2,2.6-5.8,5.8-5.8l0,0c3.2,0,5.8,2.6,5.8,5.8l0,0C3352.1,499.9,3349.5,502.5,3346.3,502.5z M3346.3,562.4
						c-3.2,0-5.8-2.6-5.8-5.8l0,0c0-3.2,2.6-5.8,5.8-5.8l0,0c3.2,0,5.8,2.6,5.8,5.8l0,0C3352.1,559.8,3349.5,562.4,3346.3,562.4z
						 M3346.3,622.3c-3.2,0-5.8-2.6-5.8-5.8l0,0c0-3.2,2.6-5.8,5.8-5.8l0,0c3.2,0,5.8,2.6,5.8,5.8l0,0
						C3352.1,619.7,3349.5,622.3,3346.3,622.3z M3346.3,682.2c-3.2,0-5.8-2.6-5.8-5.8l0,0c0-3.2,2.6-5.8,5.8-5.8l0,0
						c3.2,0,5.8,2.6,5.8,5.8l0,0C3352.1,679.6,3349.5,682.2,3346.3,682.2z"/>
				</g>
			</g>
			<g id="XMLID_1_">
				<g id="XMLID_24_">
					<path id="XMLID_25_" class="st10" d="M209.3,1350.8c-3.2,0-5.8-2.6-5.8-5.8l0,0c0-3.2,2.6-5.8,5.8-5.8l0,0
						c3.2,0,5.8,2.6,5.8,5.8l0,0C215.1,1348.2,212.5,1350.8,209.3,1350.8z M209.3,1410.7c-3.2,0-5.8-2.6-5.8-5.8l0,0
						c0-3.2,2.6-5.8,5.8-5.8l0,0c3.2,0,5.8,2.6,5.8,5.8l0,0C215.1,1408.1,212.5,1410.7,209.3,1410.7z M209.3,1470.5
						c-3.2,0-5.8-2.6-5.8-5.8l0,0c0-3.2,2.6-5.8,5.8-5.8l0,0c3.2,0,5.8,2.6,5.8,5.8l0,0C215.1,1467.9,212.5,1470.5,209.3,1470.5z
						 M209.3,1530.4c-3.2,0-5.8-2.6-5.8-5.8l0,0c0-3.2,2.6-5.8,5.8-5.8l0,0c3.2,0,5.8,2.6,5.8,5.8l0,0
						C215.1,1527.8,212.5,1530.4,209.3,1530.4z M209.3,1590.3c-3.2,0-5.8-2.6-5.8-5.8l0,0c0-3.2,2.6-5.8,5.8-5.8l0,0
						c3.2,0,5.8,2.6,5.8,5.8l0,0C215.1,1587.7,212.5,1590.3,209.3,1590.3z M209.3,1650.2c-3.2,0-5.8-2.6-5.8-5.8l0,0
						c0-3.2,2.6-5.8,5.8-5.8l0,0c3.2,0,5.8,2.6,5.8,5.8l0,0C215.1,1647.6,212.5,1650.2,209.3,1650.2z M209.3,1710.1
						c-3.2,0-5.8-2.6-5.8-5.8l0,0c0-3.2,2.6-5.8,5.8-5.8l0,0c3.2,0,5.8,2.6,5.8,5.8l0,0C215.1,1707.5,212.5,1710.1,209.3,1710.1z
						 M209.3,1770c-3.2,0-5.8-2.6-5.8-5.8l0,0c0-3.2,2.6-5.8,5.8-5.8l0,0c3.2,0,5.8,2.6,5.8,5.8l0,0
						C215.1,1767.4,212.5,1770,209.3,1770z M209.3,1829.8c-3.2,0-5.8-2.6-5.8-5.8l0,0c0-3.2,2.6-5.8,5.8-5.8l0,0
						c3.2,0,5.8,2.6,5.8,5.8l0,0C215.1,1827.2,212.5,1829.8,209.3,1829.8z"/>
				</g>
				<g id="XMLID_13_">
					<path id="XMLID_14_" class="st10" d="M278.5,1350.8c-3.2,0-5.8-2.6-5.8-5.8l0,0c0-3.2,2.6-5.8,5.8-5.8l0,0
						c3.2,0,5.8,2.6,5.8,5.8l0,0C284.3,1348.2,281.7,1350.8,278.5,1350.8z M278.5,1410.7c-3.2,0-5.8-2.6-5.8-5.8l0,0
						c0-3.2,2.6-5.8,5.8-5.8l0,0c3.2,0,5.8,2.6,5.8,5.8l0,0C284.3,1408.1,281.7,1410.7,278.5,1410.7z M278.5,1470.5
						c-3.2,0-5.8-2.6-5.8-5.8l0,0c0-3.2,2.6-5.8,5.8-5.8l0,0c3.2,0,5.8,2.6,5.8,5.8l0,0C284.3,1467.9,281.7,1470.5,278.5,1470.5z
						 M278.5,1530.4c-3.2,0-5.8-2.6-5.8-5.8l0,0c0-3.2,2.6-5.8,5.8-5.8l0,0c3.2,0,5.8,2.6,5.8,5.8l0,0
						C284.3,1527.8,281.7,1530.4,278.5,1530.4z M278.5,1590.3c-3.2,0-5.8-2.6-5.8-5.8l0,0c0-3.2,2.6-5.8,5.8-5.8l0,0
						c3.2,0,5.8,2.6,5.8,5.8l0,0C284.3,1587.7,281.7,1590.3,278.5,1590.3z M278.5,1650.2c-3.2,0-5.8-2.6-5.8-5.8l0,0
						c0-3.2,2.6-5.8,5.8-5.8l0,0c3.2,0,5.8,2.6,5.8,5.8l0,0C284.3,1647.6,281.7,1650.2,278.5,1650.2z M278.5,1710.1
						c-3.2,0-5.8-2.6-5.8-5.8l0,0c0-3.2,2.6-5.8,5.8-5.8l0,0c3.2,0,5.8,2.6,5.8,5.8l0,0C284.3,1707.5,281.7,1710.1,278.5,1710.1z
						 M278.5,1770c-3.2,0-5.8-2.6-5.8-5.8l0,0c0-3.2,2.6-5.8,5.8-5.8l0,0c3.2,0,5.8,2.6,5.8,5.8l0,0
						C284.3,1767.4,281.7,1770,278.5,1770z M278.5,1829.8c-3.2,0-5.8-2.6-5.8-5.8l0,0c0-3.2,2.6-5.8,5.8-5.8l0,0
						c3.2,0,5.8,2.6,5.8,5.8l0,0C284.3,1827.2,281.7,1829.8,278.5,1829.8z"/>
				</g>
				<g id="XMLID_2_">
					<path id="XMLID_3_" class="st10" d="M347.7,1350.8c-3.2,0-5.8-2.6-5.8-5.8l0,0c0-3.2,2.6-5.8,5.8-5.8l0,0
						c3.2,0,5.8,2.6,5.8,5.8l0,0C353.5,1348.2,350.9,1350.8,347.7,1350.8z M347.7,1410.7c-3.2,0-5.8-2.6-5.8-5.8l0,0
						c0-3.2,2.6-5.8,5.8-5.8l0,0c3.2,0,5.8,2.6,5.8,5.8l0,0C353.5,1408.1,350.9,1410.7,347.7,1410.7z M347.7,1470.5
						c-3.2,0-5.8-2.6-5.8-5.8l0,0c0-3.2,2.6-5.8,5.8-5.8l0,0c3.2,0,5.8,2.6,5.8,5.8l0,0C353.5,1467.9,350.9,1470.5,347.7,1470.5z
						 M347.7,1530.4c-3.2,0-5.8-2.6-5.8-5.8l0,0c0-3.2,2.6-5.8,5.8-5.8l0,0c3.2,0,5.8,2.6,5.8,5.8l0,0
						C353.5,1527.8,350.9,1530.4,347.7,1530.4z M347.7,1590.3c-3.2,0-5.8-2.6-5.8-5.8l0,0c0-3.2,2.6-5.8,5.8-5.8l0,0
						c3.2,0,5.8,2.6,5.8,5.8l0,0C353.5,1587.7,350.9,1590.3,347.7,1590.3z M347.7,1650.2c-3.2,0-5.8-2.6-5.8-5.8l0,0
						c0-3.2,2.6-5.8,5.8-5.8l0,0c3.2,0,5.8,2.6,5.8,5.8l0,0C353.5,1647.6,350.9,1650.2,347.7,1650.2z M347.7,1710.1
						c-3.2,0-5.8-2.6-5.8-5.8l0,0c0-3.2,2.6-5.8,5.8-5.8l0,0c3.2,0,5.8,2.6,5.8,5.8l0,0C353.5,1707.5,350.9,1710.1,347.7,1710.1z
						 M347.7,1770c-3.2,0-5.8-2.6-5.8-5.8l0,0c0-3.2,2.6-5.8,5.8-5.8l0,0c3.2,0,5.8,2.6,5.8,5.8l0,0
						C353.5,1767.4,350.9,1770,347.7,1770z M347.7,1829.8c-3.2,0-5.8-2.6-5.8-5.8l0,0c0-3.2,2.6-5.8,5.8-5.8l0,0
						c3.2,0,5.8,2.6,5.8,5.8l0,0C353.5,1827.2,350.9,1829.8,347.7,1829.8z"/>
				</g>
			</g>
			<path class="st11" d="M1649.8,192.4c4.9,10,10,20.4,20.7,20.4c10.7,0,15.8-10.4,20.7-20.4c4.6-9.3,8.9-18.1,17.1-18.1
				c8.2,0,12.5,8.8,17.1,18.1c4.9,10,10,20.4,20.7,20.4c10.7,0,15.8-10.4,20.7-20.4c4.6-9.3,8.9-18.1,17.1-18.1
				c8.2,0,12.5,8.8,17.1,18.1c4.9,10,10,20.4,20.7,20.4c10.7,0,15.8-10.4,20.7-20.4c4.6-9.3,8.9-18.1,17.1-18.1
				c8.2,0,12.5,8.8,17.1,18.1c4.9,10,10,20.4,20.7,20.4h1.6v-4.1h-1.6c-8.2,0-12.5-8.8-17.1-18.1c-4.9-10-10-20.4-20.7-20.4
				c-10.7,0-15.8,10.4-20.7,20.4c-4.6,9.3-8.9,18.1-17.1,18.1c-8.2,0-12.5-8.8-17.1-18.1c-4.9-10-10-20.4-20.7-20.4
				c-10.7,0-15.8,10.4-20.7,20.4c-4.6,9.3-8.9,18.1-17.1,18.1c-8.2,0-12.5-8.8-17.1-18.1c-4.9-10-10-20.4-20.7-20.4
				c-10.7,0-15.8,10.4-20.7,20.4c-4.6,9.3-8.9,18.1-17.1,18.1c-8.2,0-12.5-8.8-17.1-18.1c-4.9-10-10-20.4-20.7-20.4h-1.6v4.1h1.6
				C1640.9,174.3,1645.2,183,1649.8,192.4z"/>
			<path class="st11" d="M1649.8,1809.4c4.9,10,10,20.4,20.7,20.4c10.7,0,15.8-10.4,20.7-20.4c4.6-9.3,8.9-18.1,17.1-18.1
				c8.2,0,12.5,8.8,17.1,18.1c4.9,10,10,20.4,20.7,20.4c10.7,0,15.8-10.4,20.7-20.4c4.6-9.3,8.9-18.1,17.1-18.1
				c8.2,0,12.5,8.8,17.1,18.1c4.9,10,10,20.4,20.7,20.4c10.7,0,15.8-10.4,20.7-20.4c4.6-9.3,8.9-18.1,17.1-18.1
				c8.2,0,12.5,8.8,17.1,18.1c4.9,10,10,20.4,20.7,20.4h1.6v-4.1h-1.6c-8.2,0-12.5-8.8-17.1-18.1c-4.9-10-10-20.4-20.7-20.4
				c-10.7,0-15.8,10.4-20.7,20.4c-4.6,9.3-8.9,18.1-17.1,18.1c-8.2,0-12.5-8.8-17.1-18.1c-4.9-10-10-20.4-20.7-20.4
				c-10.7,0-15.8,10.4-20.7,20.4c-4.6,9.3-8.9,18.1-17.1,18.1c-8.2,0-12.5-8.8-17.1-18.1c-4.9-10-10-20.4-20.7-20.4
				c-10.7,0-15.8,10.4-20.7,20.4c-4.6,9.3-8.9,18.1-17.1,18.1c-8.2,0-12.5-8.8-17.1-18.1c-4.9-10-10-20.4-20.7-20.4h-1.6v4.1h1.6
				C1640.9,1791.4,1645.2,1800.1,1649.8,1809.4z"/>
		</g>
	</g>
</g>
</svg>
