<?xml version="1.0" encoding="utf-8"?>
<!-- Generator: Adobe Illustrator 22.1.0, SVG Export Plug-In . SVG Version: 6.00 Build 0)  -->
<svg version="1.1" id="Layer_1" xmlns="http://www.w3.org/2000/svg" xmlns:xlink="http://www.w3.org/1999/xlink" x="0px" y="0px"
	 viewBox="0 0 50 50" style="enable-background:new 0 0 50 50;" xml:space="preserve">
<style type="text/css">
	.st0{fill:#FFFFFF;}
	.st1{fill:#C9FF00;}
	.st2{clip-path:url(#SVGID_1_);fill:#FFFFFF;}
	.st3{clip-path:url(#SVGID_3_);fill:#FFFFFF;}
	.st4{clip-path:url(#SVGID_7_);fill:#FFFFFF;}
</style>
<g>
	<path class="st0" d="M13.4,28.5c4,0.2,6.6-1.7,6.6-1.7l-1.8-1c0,0-1.1,0.7-3.2,1c-1.4,0.2-3.6-0.6-4.3-1.8
		c-0.4-0.8-0.2-1.5,0.5-2.1c1-1,2.4-0.6,3.5-0.1c1.9,0.9,4.6,2.3,6.6,3.6c0.4-0.3,0.8-0.5,1.3-0.8c0.1-0.1,0.2-0.1,0.3-0.2
		c-3.4-2.1-7.2-4.4-9.7-4.8c-0.3-0.1-0.6-0.1-0.9-0.1C7.5,20.6,8.1,28.3,13.4,28.5"/>
</g>
<g>
	<path class="st1" d="M40.6,49.6h-0.6v-3.1h-1V46h2.7v0.5h-1V49.6z"/>
	<path class="st1" d="M44.1,49.6h-2V46h2v0.5h-1.4v1H44V48h-1.3v1.1h1.4V49.6z"/>
	<path class="st1" d="M47.4,49.6h-0.7l-0.9-1.5L45,49.6h-0.6l1.2-1.8L44.4,46h0.6l0.8,1.3l0.8-1.3h0.6l-1.1,1.7L47.4,49.6z"/>
</g>
<g>
	<path class="st0" d="M27.6,40.2c0,2.6-1.5,5-4.5,5c-2.9,0-4.4-2.2-4.4-4.9c0-2.8,1.6-4.9,4.6-4.9C25.9,35.3,27.6,37.3,27.6,40.2
		 M20.1,40.2c0,2,1,3.8,3,3.8c2.2,0,3-1.8,3-3.8c0-2-1-3.7-3-3.7C21,36.5,20.1,38.2,20.1,40.2z"/>
	<path class="st0" d="M30.9,40.9v4.2h-1.4v-9.6h3.8c2,0,3.1,1.1,3.1,2.6c0,1.3-0.7,2-1.6,2.3c0.7,0.2,1.4,0.8,1.4,2.4v0.4
		c0,0.7,0,1.5,0.1,1.9H35c-0.2-0.4-0.2-1.2-0.2-2.1v-0.2c0-1.3-0.4-1.9-2.1-1.9H30.9z M30.9,39.7h2c1.4,0,2-0.5,2-1.6
		c0-1-0.6-1.5-1.9-1.5h-2.1L30.9,39.7L30.9,39.7z"/>
	<path class="st0" d="M19.2,49.6v-1.8h0.2c0.3,0.4,0.9,1.4,1.1,1.6h0c0-0.3,0-0.5,0-0.8v-0.8h0.1v1.8h-0.2c-0.3-0.4-0.9-1.5-1.1-1.7
		h0c0,0.2,0,0.5,0,0.8v0.8L19.2,49.6L19.2,49.6z"/>
	<path class="st0" d="M21.6,49.6v-1.8h0.2c0.3,0.4,0.9,1.4,1.1,1.6h0c0-0.3,0-0.5,0-0.8v-0.8H23v1.8h-0.2c-0.3-0.4-0.9-1.5-1.1-1.7
		h0c0,0.2,0,0.5,0,0.8v0.8L21.6,49.6L21.6,49.6z"/>
	<path class="st0" d="M25.5,48.7c0,0.5-0.3,0.9-0.8,0.9c-0.5,0-0.8-0.4-0.8-0.9c0-0.5,0.3-0.9,0.8-0.9
		C25.2,47.7,25.5,48.1,25.5,48.7 M24,48.7c0,0.4,0.2,0.8,0.7,0.8c0.5,0,0.7-0.4,0.7-0.8c0-0.4-0.2-0.8-0.7-0.8
		C24.2,47.9,24,48.3,24,48.7z"/>
	<path class="st0" d="M26.9,49.6l-0.7-1.8h0.1l0.4,0.9c0.1,0.3,0.2,0.6,0.3,0.7h0c0-0.1,0.2-0.4,0.3-0.7l0.4-1h0.1L27,49.6H26.9z"/>
	<path class="st0" d="M28.6,49l-0.2,0.6h-0.1l0.7-1.8H29l0.7,1.8h-0.2L29.3,49H28.6z M29.3,48.8c-0.2-0.5-0.3-0.8-0.3-0.9h0
		c0,0.1-0.2,0.5-0.3,0.9H29.3z"/>
	<polygon class="st0" points="30.7,47.9 30.1,47.9 30.1,47.8 31.4,47.8 31.4,47.9 30.8,47.9 30.8,49.6 30.7,49.6 	"/>
	<rect x="32.2" y="47.8" class="st0" width="0.1" height="1.8"/>
	<path class="st0" d="M34.9,48.7c0,0.5-0.3,0.9-0.8,0.9c-0.5,0-0.8-0.4-0.8-0.9c0-0.5,0.3-0.9,0.8-0.9
		C34.6,47.7,34.9,48.1,34.9,48.7 M33.4,48.7c0,0.4,0.2,0.8,0.7,0.8c0.5,0,0.7-0.4,0.7-0.8c0-0.4-0.2-0.8-0.7-0.8
		C33.6,47.9,33.4,48.3,33.4,48.7z"/>
	<path class="st0" d="M35.8,49.6v-1.8H36c0.3,0.4,0.9,1.4,1.1,1.6h0c0-0.3,0-0.5,0-0.8v-0.8h0.1v1.8H37c-0.3-0.4-0.9-1.5-1.1-1.7h0
		c0,0.2,0,0.5,0,0.8v0.8L35.8,49.6L35.8,49.6z"/>
	<path class="st1" d="M17,11.1c0.7,0,1.5,0,2.3,0c0.7-1.7,1.9-3.9,3.6-5.6l0.9-1l0.9,1c1.7,1.7,2.8,3.8,3.6,5.6c0.8,0,1.6,0,2.3,0
		c2-0.9,4-1.2,4.9-1.4c-0.3-3.5-2.9-6.3-6.3-6.6c-1.2-1.6-3.1-2.7-5.2-2.7c-2.1-0.1-4,0.9-5.3,2.5c-3.5,0.1-6.4,3.1-6.6,6.9
		C13,9.9,15,10.2,17,11.1"/>
	<path class="st0" d="M2.7,42.4c0.3,1.1,1,1.7,2.4,1.7c1.4,0,2-0.7,2-1.5c0-0.9-0.5-1.4-2.3-1.9c-2.3-0.6-3.1-1.4-3.1-2.7
		c0-1.5,1.1-2.6,3.3-2.6c2.3,0,3.3,1.3,3.4,2.6H6.9c-0.2-0.8-0.7-1.5-2-1.5c-1.1,0-1.7,0.5-1.7,1.4c0,0.9,0.5,1.2,2.2,1.6
		c2.7,0.7,3.3,1.7,3.3,3c0,1.6-1.2,2.8-3.6,2.8c-2.4,0-3.5-1.3-3.7-2.8L2.7,42.4L2.7,42.4z"/>
	<path class="st0" d="M10.3,35.5H14c1.9,0,3.2,1.1,3.2,2.8c0,1.9-1.4,2.9-3.3,2.9h-2.2v3.9h-1.4L10.3,35.5L10.3,35.5z M11.8,40h2.1
		c1.2,0,1.9-0.6,1.9-1.7c0-1.1-0.8-1.7-1.9-1.7h-2.2L11.8,40L11.8,40z"/>
	<path class="st0" d="M40.1,42.3l-1,2.8h-1.4l3.4-9.6h1.8l3.5,9.6h-1.5l-1-2.8H40.1z M43.5,41.1c-0.9-2.4-1.4-3.8-1.6-4.5h0
		c-0.2,0.8-0.8,2.4-1.5,4.5H43.5z"/>
	<polygon class="st0" points="2.7,48.7 1.8,48.7 1.8,49.5 2.8,49.5 2.8,49.6 1.7,49.6 1.7,47.8 2.8,47.8 2.8,47.9 1.8,47.9 
		1.8,48.6 2.7,48.6 	"/>
	<path class="st0" d="M4,49.6v-1.8h0.2c0.3,0.4,0.9,1.4,1.1,1.6h0c0-0.3,0-0.5,0-0.8v-0.8h0.1v1.8H5.2c-0.3-0.4-0.9-1.5-1.1-1.7h0
		c0,0.2,0,0.5,0,0.8v0.8L4,49.6L4,49.6z"/>
	<path class="st0" d="M6.4,47.8H7c0.5,0,0.8,0.3,0.8,0.9c0,0.5-0.3,0.9-0.8,0.9H6.4L6.4,47.8L6.4,47.8z M6.6,49.5H7
		c0.5,0,0.7-0.3,0.7-0.8c0-0.4-0.2-0.8-0.7-0.8H6.6V49.5z"/>
	<polygon class="st0" points="8.8,47.8 8.9,47.8 8.9,49.5 9.9,49.5 9.9,49.6 8.8,49.6 	"/>
	<polygon class="st0" points="11.7,48.7 10.8,48.7 10.8,49.5 11.8,49.5 11.8,49.6 10.7,49.6 10.7,47.8 11.8,47.8 11.8,47.9 
		10.8,47.9 10.8,48.6 11.7,48.6 	"/>
	<path class="st0" d="M12.7,49.1c0.1,0.2,0.2,0.4,0.5,0.4c0.3,0,0.5-0.2,0.5-0.4c0-0.2-0.1-0.3-0.5-0.4c-0.4-0.1-0.5-0.2-0.5-0.5
		c0-0.2,0.2-0.5,0.6-0.5c0.4,0,0.6,0.2,0.6,0.5h-0.1c0-0.2-0.2-0.3-0.4-0.3c-0.3,0-0.4,0.1-0.4,0.3c0,0.2,0.1,0.3,0.4,0.4
		c0.5,0.1,0.6,0.3,0.6,0.5c0,0.3-0.2,0.5-0.6,0.5c-0.4,0-0.6-0.3-0.6-0.5L12.7,49.1L12.7,49.1z"/>
	<path class="st0" d="M14.8,49.1c0.1,0.2,0.2,0.4,0.5,0.4c0.3,0,0.5-0.2,0.5-0.4c0-0.2-0.1-0.3-0.5-0.4c-0.4-0.1-0.5-0.2-0.5-0.5
		c0-0.2,0.2-0.5,0.6-0.5c0.4,0,0.6,0.2,0.6,0.5h-0.1c0-0.2-0.2-0.3-0.4-0.3c-0.3,0-0.4,0.1-0.4,0.3c0,0.2,0.1,0.3,0.4,0.4
		c0.5,0.1,0.6,0.3,0.6,0.5c0,0.3-0.2,0.5-0.6,0.5c-0.4,0-0.6-0.3-0.6-0.5L14.8,49.1L14.8,49.1z"/>
	<rect x="18" y="47.8" class="st0" width="0.1" height="1.8"/>
	<path class="st0" d="M45.3,34.5c0.2,0,0.4,0,0.6,0.1c0.2,0.1,0.3,0.2,0.5,0.3c0.1,0.1,0.2,0.3,0.3,0.5c0.1,0.2,0.1,0.4,0.1,0.6
		s0,0.4-0.1,0.6c-0.1,0.2-0.2,0.3-0.3,0.5c-0.1,0.1-0.3,0.2-0.5,0.3c-0.2,0.1-0.4,0.1-0.6,0.1c-0.3,0-0.5-0.1-0.7-0.2
		c-0.2-0.1-0.4-0.3-0.5-0.5c-0.1-0.2-0.2-0.5-0.2-0.7c0-0.2,0-0.4,0.1-0.6c0.1-0.2,0.2-0.3,0.3-0.5c0.1-0.1,0.3-0.2,0.5-0.3
		C44.9,34.5,45.1,34.5,45.3,34.5 M45.3,34.7c-0.2,0-0.4,0.1-0.6,0.2c-0.2,0.1-0.3,0.3-0.4,0.4c-0.1,0.2-0.2,0.4-0.2,0.6
		c0,0.2,0.1,0.4,0.2,0.6c0.1,0.2,0.3,0.3,0.4,0.4c0.2,0.1,0.4,0.2,0.6,0.2c0.2,0,0.4-0.1,0.6-0.2c0.2-0.1,0.3-0.3,0.4-0.4
		c0.1-0.2,0.2-0.4,0.2-0.6c0-0.2,0-0.3-0.1-0.5c-0.1-0.1-0.1-0.3-0.3-0.4s-0.2-0.2-0.4-0.3C45.6,34.8,45.5,34.7,45.3,34.7z
		 M44.9,36.8h-0.3v-1.6h0.5c0.1,0,0.2,0,0.3,0c0.1,0,0.1,0,0.2,0c0.1,0,0.1,0.1,0.2,0.1c0,0.1,0.1,0.1,0.1,0.2c0,0.1,0,0.2-0.1,0.3
		c-0.1,0.1-0.2,0.1-0.3,0.1c0.1,0,0.1,0.1,0.2,0.1c0,0.1,0.1,0.1,0.2,0.3l0.2,0.3h-0.3l-0.1-0.2c-0.1-0.2-0.2-0.3-0.2-0.3
		s-0.1-0.1-0.2-0.1h-0.2L44.9,36.8L44.9,36.8z M44.9,35.4v0.5h0.3c0.1,0,0.2,0,0.2,0c0.1,0,0.1,0,0.1-0.1c0,0,0-0.1,0-0.1
		c0-0.1,0-0.2-0.1-0.2c-0.1,0-0.2,0-0.3,0L44.9,35.4L44.9,35.4z"/>
	<g>
		<g>
			<path id="SVGID_6_" class="st0" d="M20.9,15.7c0.2-2.9,2.9-6.3,2.9-6.3s2.7,3.4,2.9,6.3s-2.9,6-2.9,6S20.7,18.6,20.9,15.7
				 M19.5,13.9c-2.8-2.7-8.1-3.2-8.1-3.2c1.6,8.7,8.4,10.5,8.4,10.5s-5.2-3.9-6.3-8.4c0,0,4,1.3,5.6,2.9c0,0-0.1,1.5,0.8,3.6
				c0.8,2.1,2.6,3.4,2.6,3.4l1.2,0.9l1.2-0.9c0,0,1.8-1.3,2.6-3.4s0.8-3.6,0.8-3.6c1.6-1.6,5.6-2.9,5.6-2.9c-1,4.5-6.3,8.4-6.3,8.4
				s6.8-1.7,8.4-10.5c0,0-5.3,0.5-8.1,3.2c0,0-1.2-4.5-4.3-7.4C20.8,9.4,19.5,13.9,19.5,13.9z"/>
		</g>
		<g>
			<defs>
				<path id="SVGID_5_" d="M20.9,15.7c0.2-2.9,2.9-6.3,2.9-6.3s2.7,3.4,2.9,6.3s-2.9,6-2.9,6S20.7,18.6,20.9,15.7 M19.5,13.9
					c-2.8-2.7-8.1-3.2-8.1-3.2c1.6,8.7,8.4,10.5,8.4,10.5s-5.2-3.9-6.3-8.4c0,0,4,1.3,5.6,2.9c0,0-0.1,1.5,0.8,3.6
					c0.8,2.1,2.6,3.4,2.6,3.4l1.2,0.9l1.2-0.9c0,0,1.8-1.3,2.6-3.4s0.8-3.6,0.8-3.6c1.6-1.6,5.6-2.9,5.6-2.9c-1,4.5-6.3,8.4-6.3,8.4
					s6.8-1.7,8.4-10.5c0,0-5.3,0.5-8.1,3.2c0,0-1.2-4.5-4.3-7.4C20.8,9.4,19.5,13.9,19.5,13.9z"/>
			</defs>
			<clipPath id="SVGID_1_">
				<use xlink:href="#SVGID_5_"  style="overflow:visible;"/>
			</clipPath>
			<rect x="11.5" y="6.5" class="st2" width="24.7" height="17.1"/>
		</g>
	</g>
	<g>
		<g>
			<path id="SVGID_00000004541585794559396220000009113115432804642440_" class="st0" d="M33.2,21.2C29,21.9,20.9,28,17.6,29.5
				s-5.2,1.2-5.2,1.2c4.1,1.3,8.8-0.8,10.7-2.3c1.9-1.6,6.1-3.8,8.7-5.1c1.2-0.6,2.5-0.9,3.6,0.1c0.6,0.6,0.9,1.3,0.5,2.1
				c-0.7,1.3-3,2-4.3,1.8c-2.1-0.3-3.2-1-3.2-1l-1.8,1c0,0,2.6,1.9,6.6,1.7c5.3-0.2,5.9-7.9,1-7.9C33.8,21.1,33.5,21.1,33.2,21.2"/>
		</g>
		<g>
			<defs>
				<path id="SVGID_4_" d="M33.2,21.2C29,21.9,20.9,28,17.6,29.5s-5.2,1.2-5.2,1.2c4.1,1.3,8.8-0.8,10.7-2.3
					c1.9-1.6,6.1-3.8,8.7-5.1c1.2-0.6,2.5-0.9,3.6,0.1c0.6,0.6,0.9,1.3,0.5,2.1c-0.7,1.3-3,2-4.3,1.8c-2.1-0.3-3.2-1-3.2-1l-1.8,1
					c0,0,2.6,1.9,6.6,1.7c5.3-0.2,5.9-7.9,1-7.9C33.8,21.1,33.5,21.1,33.2,21.2"/>
			</defs>
			<clipPath id="SVGID_3_">
				<use xlink:href="#SVGID_4_"  style="overflow:visible;"/>
			</clipPath>
			<rect x="12.4" y="21.1" class="st3" width="26.7" height="11"/>
		</g>
	</g>
	<g>
		<g>
			<path id="SVGID_00000063607144291421674290000007716857813657512616_" class="st0" d="M24.6,29c0,0-0.1,0.1-0.1,0.1
				c2.3,1.4,6.2,2.8,9.8,1.7c0,0-1.9,0.3-5.2-1.2c-0.7-0.4-1.7-0.9-2.9-1.7C25.5,28.3,25,28.7,24.6,29"/>
		</g>
		<g>
			<defs>
				<path id="SVGID_2_" d="M24.6,29c0,0-0.1,0.1-0.1,0.1c2.3,1.4,6.2,2.8,9.8,1.7c0,0-1.9,0.3-5.2-1.2c-0.7-0.4-1.7-0.9-2.9-1.7
					C25.5,28.3,25,28.7,24.6,29"/>
			</defs>
			<clipPath id="SVGID_7_">
				<use xlink:href="#SVGID_2_"  style="overflow:visible;"/>
			</clipPath>
			<rect x="24.4" y="27.9" class="st4" width="9.8" height="4"/>
		</g>
	</g>
</g>
</svg>
