<?xml version="1.0" encoding="utf-8"?>
<!-- Generator: Adobe Illustrator 22.1.0, SVG Export Plug-In . SVG Version: 6.00 Build 0)  -->
<svg version="1.1" id="Layer_1" xmlns="http://www.w3.org/2000/svg" xmlns:xlink="http://www.w3.org/1999/xlink" x="0px" y="0px"
	 viewBox="0 0 50 50" style="enable-background:new 0 0 50 50;" xml:space="preserve">
<style type="text/css">
	.st0{clip-path:url(#SVGID_3_);fill:#FFFFFF;}
	.st1{clip-path:url(#SVGID_5_);fill:#FFFFFF;}
	.st2{fill:#FFFFFF;}
	.st3{clip-path:url(#SVGID_7_);fill:#FFFFFF;}
	.st4{clip-path:url(#SVGID_9_);fill:#FFFFFF;}
	.st5{fill:#4169E1;}
	.st6{fill:#C9FF00;}
	.st7{clip-path:url(#SVGID_10_);fill:#4169E1;}
	.st8{clip-path:url(#SVGID_11_);fill:#4169E1;}
	.st9{clip-path:url(#SVGID_12_);fill:#4169E1;}
	.st10{clip-path:url(#SVGID_13_);fill:#4169E1;}
</style>
<g>
	<g>
		<defs>
			<path id="SVGID_2_" d="M21.8,15.3C22,12.4,24.7,9,24.7,9s2.7,3.4,2.9,6.3c0.2,2.9-2.9,6-2.9,6S21.6,18.1,21.8,15.3 M20.4,13.4
				c-2.8-2.7-8.1-3.1-8.1-3.1c1.6,8.7,8.3,10.4,8.3,10.4s-5.2-3.9-6.2-8.3c0,0,4,1.3,5.6,2.9c0,0-0.1,1.5,0.8,3.5
				c0.8,2.1,2.6,3.4,2.6,3.4l1.2,0.9l1.2-0.9c0,0,1.8-1.3,2.6-3.4c0.8-2.1,0.8-3.5,0.8-3.5c1.6-1.6,5.6-2.9,5.6-2.9
				c-1,4.5-6.2,8.3-6.2,8.3S35.4,19,37,10.3c0,0-5.3,0.5-8.1,3.1c0,0-1.2-4.5-4.3-7.4C21.6,8.9,20.4,13.4,20.4,13.4"/>
		</defs>
		<clipPath id="SVGID_3_">
			<use xlink:href="#SVGID_2_"  style="overflow:visible;"/>
		</clipPath>
		<rect x="12.4" y="6" class="st0" width="24.6" height="17"/>
	</g>
</g>
<g>
	<g>
		<defs>
			<path id="SVGID_4_" d="M35.9,20.6c-0.3,0-0.6,0-0.9,0.1c-4.2,0.7-12.3,6.7-15.6,8.3c-3.2,1.5-5.2,1.2-5.2,1.2
				c4.1,1.3,8.7-0.8,10.7-2.3c1.9-1.5,6-3.8,8.7-5.1c1.2-0.6,2.5-0.9,3.5,0.1c0.6,0.6,0.9,1.3,0.5,2.1c-0.7,1.3-3,2-4.3,1.8
				c-2.1-0.3-3.2-1-3.2-1l-1.8,1c0,0,2.6,1.9,6.6,1.7C40.2,28.3,40.9,20.6,35.9,20.6L35.9,20.6"/>
		</defs>
		<clipPath id="SVGID_5_">
			<use xlink:href="#SVGID_4_"  style="overflow:visible;"/>
		</clipPath>
		<rect x="14.3" y="20.6" class="st1" width="26.6" height="10.9"/>
	</g>
</g>
<g>
	<path class="st2" d="M14.4,28.5c4,0.2,6.6-1.7,6.6-1.7l-1.8-1c0,0-1.1,0.7-3.2,1c-1.4,0.2-3.6-0.6-4.3-1.8
		c-0.4-0.8-0.2-1.5,0.5-2.1c1-1,2.4-0.6,3.5-0.1c1.9,0.9,4.6,2.3,6.6,3.6c0.4-0.3,0.8-0.5,1.3-0.8c0.1-0.1,0.2-0.1,0.3-0.2
		c-3.4-2.1-7.2-4.4-9.7-4.8c-0.3-0.1-0.6-0.1-0.9-0.1C8.5,20.6,9.1,28.3,14.4,28.5"/>
</g>
<g>
	<g>
		<defs>
			<path id="SVGID_6_" d="M14.4,28.5c4,0.2,6.6-1.7,6.6-1.7l-1.8-1c0,0-1.1,0.7-3.2,1c-1.4,0.2-3.6-0.6-4.3-1.8
				c-0.4-0.8-0.2-1.5,0.5-2.1c1-1,2.4-0.6,3.5-0.1c1.9,0.9,4.6,2.3,6.6,3.6c0.4-0.3,0.8-0.5,1.3-0.8c0.1-0.1,0.2-0.1,0.3-0.2
				c-3.4-2.1-7.2-4.4-9.7-4.8c-0.3-0.1-0.6-0.1-0.9-0.1C8.5,20.6,9.1,28.3,14.4,28.5"/>
		</defs>
		<clipPath id="SVGID_7_">
			<use xlink:href="#SVGID_6_"  style="overflow:visible;"/>
		</clipPath>
		<rect x="8.5" y="20.6" class="st3" width="15.5" height="8"/>
	</g>
</g>
<g>
	<path class="st2" d="M25.4,28.5l-0.1,0.1c2.3,1.4,6.2,2.8,9.8,1.7c0,0-1.9,0.3-5.2-1.2c-0.7-0.4-1.7-0.9-2.9-1.6
		C26.4,27.7,25.8,28.1,25.4,28.5"/>
</g>
<g>
	<g>
		<defs>
			<path id="SVGID_8_" d="M25.4,28.5l-0.1,0.1c2.3,1.4,6.2,2.8,9.8,1.7c0,0-1.9,0.3-5.2-1.2c-0.7-0.4-1.7-0.9-2.9-1.6
				C26.4,27.7,25.8,28.1,25.4,28.5"/>
		</defs>
		<clipPath id="SVGID_9_">
			<use xlink:href="#SVGID_8_"  style="overflow:visible;"/>
		</clipPath>
		<rect x="25.3" y="27.3" class="st4" width="9.8" height="4"/>
	</g>
</g>
<g>
	<path class="st5" d="M28.6,40.2c0,2.6-1.5,5-4.5,5c-2.9,0-4.4-2.2-4.4-4.9c0-2.8,1.6-4.9,4.6-4.9C26.9,35.3,28.6,37.3,28.6,40.2
		 M21.1,40.2c0,2,1,3.8,3,3.8c2.2,0,3-1.8,3-3.8c0-2-1-3.7-3-3.7C22,36.5,21.1,38.2,21.1,40.2z"/>
	<path class="st5" d="M31.9,40.9v4.2h-1.4v-9.6h3.8c2,0,3.1,1.1,3.1,2.6c0,1.3-0.7,2-1.6,2.3c0.7,0.2,1.4,0.8,1.4,2.4v0.4
		c0,0.7,0,1.5,0.1,1.9H36c-0.2-0.4-0.2-1.2-0.2-2.1v-0.2c0-1.3-0.4-1.9-2.1-1.9H31.9z M31.9,39.7h2c1.4,0,2-0.5,2-1.6
		c0-1-0.6-1.5-1.9-1.5h-2.1V39.7z"/>
	<path class="st5" d="M20.2,49.6v-1.8h0.2c0.3,0.4,0.9,1.4,1.1,1.6h0c0-0.3,0-0.5,0-0.8v-0.8h0.1v1.8h-0.2c-0.3-0.4-0.9-1.5-1.1-1.7
		h0c0,0.2,0,0.5,0,0.8v0.8L20.2,49.6L20.2,49.6z"/>
	<path class="st5" d="M22.6,49.6v-1.8h0.2c0.3,0.4,0.9,1.4,1.1,1.6h0c0-0.3,0-0.5,0-0.8v-0.8H24v1.8h-0.2c-0.3-0.4-0.9-1.5-1.1-1.7
		h0c0,0.2,0,0.5,0,0.8v0.8L22.6,49.6L22.6,49.6z"/>
	<path class="st5" d="M26.5,48.7c0,0.5-0.3,0.9-0.8,0.9c-0.5,0-0.8-0.4-0.8-0.9c0-0.5,0.3-0.9,0.8-0.9
		C26.2,47.7,26.5,48.1,26.5,48.7 M25,48.7c0,0.4,0.2,0.8,0.7,0.8c0.5,0,0.7-0.4,0.7-0.8c0-0.4-0.2-0.8-0.7-0.8
		C25.2,47.9,25,48.3,25,48.7z"/>
	<path class="st5" d="M27.9,49.6l-0.7-1.8h0.1l0.3,0.9c0.1,0.3,0.2,0.6,0.3,0.7h0c0-0.1,0.2-0.5,0.3-0.7l0.4-1h0.1L28,49.6
		L27.9,49.6L27.9,49.6z"/>
	<path class="st5" d="M29.6,49l-0.2,0.6h-0.1l0.7-1.8H30l0.7,1.8h-0.2L30.3,49H29.6z M30.3,48.8c-0.2-0.5-0.3-0.8-0.3-0.9h0
		c0,0.1-0.2,0.5-0.3,0.9H30.3z"/>
	<polygon class="st5" points="31.7,47.9 31.1,47.9 31.1,47.8 32.4,47.8 32.4,47.9 31.8,47.9 31.8,49.6 31.7,49.6 	"/>
	<rect x="33.2" y="47.8" class="st5" width="0.1" height="1.8"/>
	<path class="st5" d="M35.9,48.7c0,0.5-0.3,0.9-0.8,0.9c-0.5,0-0.8-0.4-0.8-0.9c0-0.5,0.3-0.9,0.8-0.9
		C35.6,47.7,35.9,48.1,35.9,48.7 M34.4,48.7c0,0.4,0.2,0.8,0.7,0.8c0.5,0,0.7-0.4,0.7-0.8c0-0.4-0.2-0.8-0.7-0.8
		C34.6,47.9,34.4,48.3,34.4,48.7z"/>
	<path class="st5" d="M36.8,49.6v-1.8H37c0.3,0.4,0.9,1.4,1.1,1.6h0c0-0.3,0-0.5,0-0.8v-0.8h0.1v1.8H38c-0.3-0.4-0.9-1.5-1.1-1.7h0
		c0,0.2,0,0.5,0,0.8v0.8L36.8,49.6L36.8,49.6z"/>
	<path class="st6" d="M18,11.1c0.7,0,1.5,0,2.3,0c0.7-1.7,1.9-3.9,3.6-5.6l0.9-1l0.9,1c1.7,1.7,2.8,3.8,3.6,5.6c0.8,0,1.6,0,2.3,0
		c2-0.9,4-1.2,4.9-1.4c-0.3-3.5-2.9-6.3-6.3-6.6c-1.2-1.6-3.1-2.7-5.2-2.7c-2.1-0.1-4,0.9-5.3,2.5c-3.5,0.1-6.4,3.1-6.6,6.9
		C14,9.9,16,10.2,18,11.1"/>
	<path class="st5" d="M3.7,42.4c0.3,1.1,1,1.7,2.4,1.7c1.4,0,2-0.7,2-1.5c0-0.9-0.5-1.4-2.3-1.9c-2.3-0.6-3.1-1.4-3.1-2.7
		c0-1.5,1.1-2.6,3.3-2.6c2.3,0,3.3,1.3,3.4,2.6H7.9c-0.2-0.8-0.7-1.5-2-1.5c-1.1,0-1.7,0.5-1.7,1.4c0,0.9,0.5,1.2,2.2,1.6
		c2.7,0.7,3.3,1.7,3.3,3c0,1.6-1.2,2.8-3.6,2.8c-2.4,0-3.5-1.3-3.7-2.8L3.7,42.4L3.7,42.4z"/>
	<path class="st5" d="M11.3,35.5H15c1.9,0,3.2,1.1,3.2,2.8c0,1.9-1.4,2.9-3.3,2.9h-2.2v3.9h-1.4V35.5z M12.8,40h2.1
		c1.2,0,1.9-0.6,1.9-1.7c0-1.1-0.8-1.7-1.9-1.7h-2.2L12.8,40L12.8,40z"/>
	<path class="st5" d="M41.1,42.3l-1,2.8h-1.4l3.4-9.6h1.8l3.5,9.6h-1.5l-1-2.8H41.1z M44.5,41.1c-0.9-2.4-1.4-3.8-1.6-4.5h0
		c-0.2,0.8-0.8,2.4-1.5,4.5H44.5z"/>
	<polygon class="st5" points="3.7,48.7 2.8,48.7 2.8,49.5 3.8,49.5 3.8,49.6 2.7,49.6 2.7,47.8 3.8,47.8 3.8,47.9 2.8,47.9 
		2.8,48.6 3.7,48.6 	"/>
	<path class="st5" d="M5,49.6v-1.8h0.2c0.3,0.4,0.9,1.4,1.1,1.6h0c0-0.3,0-0.5,0-0.8v-0.8h0.1v1.8H6.2c-0.3-0.4-0.9-1.5-1.1-1.7h0
		c0,0.2,0,0.5,0,0.8v0.8L5,49.6L5,49.6z"/>
	<path class="st5" d="M7.4,47.8H8c0.5,0,0.8,0.3,0.8,0.9c0,0.5-0.3,0.9-0.8,0.9H7.4L7.4,47.8L7.4,47.8z M7.6,49.5H8
		c0.5,0,0.7-0.3,0.7-0.8c0-0.4-0.2-0.8-0.7-0.8H7.6V49.5z"/>
	<polygon class="st5" points="9.8,47.8 9.9,47.8 9.9,49.5 10.9,49.5 10.9,49.6 9.8,49.6 	"/>
	<polygon class="st5" points="12.7,48.7 11.8,48.7 11.8,49.5 12.8,49.5 12.8,49.6 11.7,49.6 11.7,47.8 12.8,47.8 12.8,47.9 
		11.8,47.9 11.8,48.6 12.7,48.6 	"/>
	<path class="st5" d="M13.7,49.1c0.1,0.2,0.2,0.4,0.5,0.4c0.3,0,0.5-0.2,0.5-0.4c0-0.2-0.1-0.3-0.5-0.4c-0.4-0.1-0.5-0.2-0.5-0.5
		c0-0.2,0.2-0.5,0.6-0.5c0.4,0,0.6,0.2,0.6,0.5h-0.1c0-0.2-0.2-0.3-0.5-0.3c-0.3,0-0.4,0.1-0.4,0.3c0,0.2,0.1,0.3,0.5,0.4
		c0.5,0.1,0.6,0.3,0.6,0.5c0,0.3-0.2,0.5-0.6,0.5c-0.5,0-0.6-0.3-0.6-0.5L13.7,49.1L13.7,49.1z"/>
	<path class="st5" d="M15.8,49.1c0.1,0.2,0.2,0.4,0.5,0.4c0.3,0,0.5-0.2,0.5-0.4c0-0.2-0.1-0.3-0.5-0.4c-0.4-0.1-0.5-0.2-0.5-0.5
		c0-0.2,0.2-0.5,0.6-0.5c0.4,0,0.6,0.2,0.6,0.5h-0.1c0-0.2-0.2-0.3-0.5-0.3c-0.3,0-0.4,0.1-0.4,0.3c0,0.2,0.1,0.3,0.5,0.4
		c0.5,0.1,0.6,0.3,0.6,0.5c0,0.3-0.2,0.5-0.6,0.5c-0.5,0-0.6-0.3-0.6-0.5L15.8,49.1L15.8,49.1z"/>
	<rect x="19" y="47.8" class="st5" width="0.1" height="1.8"/>
	<path class="st5" d="M46.3,34.5c0.2,0,0.4,0,0.6,0.1c0.2,0.1,0.3,0.2,0.5,0.3c0.1,0.1,0.2,0.3,0.3,0.5c0.1,0.2,0.1,0.4,0.1,0.6
		c0,0.2,0,0.4-0.1,0.6c-0.1,0.2-0.2,0.3-0.3,0.5c-0.1,0.1-0.3,0.2-0.5,0.3c-0.2,0.1-0.4,0.1-0.6,0.1c-0.3,0-0.5-0.1-0.7-0.2
		c-0.2-0.1-0.4-0.3-0.5-0.5c-0.1-0.2-0.2-0.5-0.2-0.7c0-0.2,0-0.4,0.1-0.6c0.1-0.2,0.2-0.3,0.3-0.5c0.1-0.1,0.3-0.2,0.5-0.3
		C45.9,34.5,46.1,34.5,46.3,34.5 M46.3,34.7c-0.2,0-0.4,0.1-0.6,0.2c-0.2,0.1-0.3,0.3-0.4,0.4c-0.1,0.2-0.2,0.4-0.2,0.6
		s0.1,0.4,0.2,0.6c0.1,0.2,0.3,0.3,0.4,0.4c0.2,0.1,0.4,0.2,0.6,0.2c0.2,0,0.4-0.1,0.6-0.2c0.2-0.1,0.3-0.3,0.4-0.4
		c0.1-0.2,0.2-0.4,0.2-0.6c0-0.2,0-0.3-0.1-0.5s-0.1-0.3-0.3-0.4c-0.1-0.1-0.2-0.2-0.4-0.3C46.6,34.8,46.5,34.7,46.3,34.7z
		 M45.9,36.8h-0.3v-1.6h0.5c0.1,0,0.2,0,0.3,0s0.1,0,0.2,0c0.1,0,0.1,0.1,0.2,0.1c0,0.1,0.1,0.1,0.1,0.2c0,0.1,0,0.2-0.1,0.3
		c-0.1,0.1-0.2,0.1-0.3,0.1c0.1,0,0.1,0.1,0.2,0.1c0,0.1,0.1,0.1,0.2,0.3l0.2,0.3h-0.3l-0.1-0.2c-0.1-0.2-0.2-0.3-0.2-0.3
		c-0.1-0.1-0.1-0.1-0.2-0.1h-0.1L45.9,36.8L45.9,36.8z M45.9,35.4v0.5h0.3c0.1,0,0.2,0,0.2,0c0.1,0,0.1,0,0.1-0.1c0,0,0-0.1,0-0.1
		c0-0.1,0-0.2-0.1-0.2c-0.1,0-0.2,0-0.3,0H45.9z"/>
	<g>
		<g>
			<path id="SVGID_1_" class="st5" d="M21.9,15.7c0.2-2.9,2.9-6.3,2.9-6.3s2.7,3.4,2.9,6.3c0.2,2.9-2.9,6-2.9,6S21.7,18.6,21.9,15.7
				 M20.5,13.9c-2.8-2.7-8.1-3.2-8.1-3.2c1.6,8.7,8.4,10.5,8.4,10.5s-5.2-3.9-6.3-8.4c0,0,4,1.3,5.6,2.9c0,0-0.1,1.5,0.8,3.6
				c0.8,2.1,2.6,3.4,2.6,3.4l1.2,0.9l1.2-0.9c0,0,1.8-1.3,2.6-3.4c0.8-2.1,0.8-3.6,0.8-3.6c1.6-1.6,5.6-2.9,5.6-2.9
				c-1,4.5-6.3,8.4-6.3,8.4s6.8-1.7,8.4-10.5c0,0-5.3,0.5-8.1,3.2c0,0-1.2-4.5-4.3-7.4C21.8,9.4,20.5,13.9,20.5,13.9z"/>
		</g>
		<g>
			<defs>
				<path id="SVGID_14_" d="M21.9,15.7c0.2-2.9,2.9-6.3,2.9-6.3s2.7,3.4,2.9,6.3c0.2,2.9-2.9,6-2.9,6S21.7,18.6,21.9,15.7
					 M20.5,13.9c-2.8-2.7-8.1-3.2-8.1-3.2c1.6,8.7,8.4,10.5,8.4,10.5s-5.2-3.9-6.3-8.4c0,0,4,1.3,5.6,2.9c0,0-0.1,1.5,0.8,3.6
					c0.8,2.1,2.6,3.4,2.6,3.4l1.2,0.9l1.2-0.9c0,0,1.8-1.3,2.6-3.4c0.8-2.1,0.8-3.6,0.8-3.6c1.6-1.6,5.6-2.9,5.6-2.9
					c-1,4.5-6.3,8.4-6.3,8.4s6.8-1.7,8.4-10.5c0,0-5.3,0.5-8.1,3.2c0,0-1.2-4.5-4.3-7.4C21.8,9.4,20.5,13.9,20.5,13.9z"/>
			</defs>
			<clipPath id="SVGID_10_">
				<use xlink:href="#SVGID_14_"  style="overflow:visible;"/>
			</clipPath>
			<rect x="12.4" y="6.5" class="st7" width="24.7" height="17.1"/>
		</g>
	</g>
	<g>
		<g>
			<path id="SVGID_00000127031340614153374620000010758941382684521865_" class="st5" d="M35.2,21.2C31,21.9,22.8,28,19.6,29.5
				c-3.3,1.6-5.2,1.2-5.2,1.2c4.1,1.3,8.8-0.8,10.7-2.3c1.9-1.6,6.1-3.8,8.7-5.1c1.2-0.6,2.5-0.9,3.6,0.1c0.6,0.6,0.9,1.3,0.5,2.1
				c-0.7,1.3-3,2-4.3,1.8c-2.1-0.3-3.2-1-3.2-1l-1.8,1c0,0,2.6,1.9,6.6,1.7c5.3-0.2,5.9-7.9,1-7.9C35.8,21.1,35.5,21.1,35.2,21.2"/>
		</g>
		<g>
			<defs>
				<path id="SVGID_16_" d="M35.2,21.2C31,21.9,22.8,28,19.6,29.5c-3.3,1.6-5.2,1.2-5.2,1.2c4.1,1.3,8.8-0.8,10.7-2.3
					c1.9-1.6,6.1-3.8,8.7-5.1c1.2-0.6,2.5-0.9,3.6,0.1c0.6,0.6,0.9,1.3,0.5,2.1c-0.7,1.3-3,2-4.3,1.8c-2.1-0.3-3.2-1-3.2-1l-1.8,1
					c0,0,2.6,1.9,6.6,1.7c5.3-0.2,5.9-7.9,1-7.9C35.8,21.1,35.5,21.1,35.2,21.2"/>
			</defs>
			<clipPath id="SVGID_11_">
				<use xlink:href="#SVGID_16_"  style="overflow:visible;"/>
			</clipPath>
			<rect x="14.4" y="21.1" class="st8" width="26.7" height="11"/>
		</g>
	</g>
	<g>
		<g>
			<path id="SVGID_00000147907966656588514690000001768559303180561808_" class="st5" d="M14.5,29.1c4,0.2,6.6-1.7,6.6-1.7l-1.8-1
				c0,0-1.1,0.7-3.2,1c-1.4,0.2-3.6-0.6-4.3-1.8c-0.4-0.8-0.2-1.5,0.5-2.1c1-1,2.4-0.6,3.6-0.1c1.9,0.9,4.6,2.4,6.7,3.7
				c0.4-0.3,0.9-0.5,1.3-0.8c0.1-0.1,0.2-0.1,0.3-0.2c-3.4-2.1-7.2-4.4-9.7-4.8c-0.3-0.1-0.6-0.1-0.9-0.1
				C8.6,21.1,9.2,28.8,14.5,29.1"/>
		</g>
		<g>
			<defs>
				<path id="SVGID_18_" d="M14.5,29.1c4,0.2,6.6-1.7,6.6-1.7l-1.8-1c0,0-1.1,0.7-3.2,1c-1.4,0.2-3.6-0.6-4.3-1.8
					c-0.4-0.8-0.2-1.5,0.5-2.1c1-1,2.4-0.6,3.6-0.1c1.9,0.9,4.6,2.4,6.7,3.7c0.4-0.3,0.9-0.5,1.3-0.8c0.1-0.1,0.2-0.1,0.3-0.2
					c-3.4-2.1-7.2-4.4-9.7-4.8c-0.3-0.1-0.6-0.1-0.9-0.1C8.6,21.1,9.2,28.8,14.5,29.1"/>
			</defs>
			<clipPath id="SVGID_12_">
				<use xlink:href="#SVGID_18_"  style="overflow:visible;"/>
			</clipPath>
			<rect x="8.6" y="21.1" class="st9" width="15.6" height="8.1"/>
		</g>
	</g>
	<g>
		<g>
			<path id="SVGID_00000013899460194324738120000004981333076575329213_" class="st5" d="M25.6,29c0,0-0.1,0.1-0.1,0.1
				c2.3,1.4,6.2,2.8,9.8,1.7c0,0-1.9,0.3-5.2-1.2c-0.7-0.4-1.7-0.9-2.9-1.6C26.5,28.3,26,28.7,25.6,29"/>
		</g>
		<g>
			<defs>
				<path id="SVGID_20_" d="M25.6,29c0,0-0.1,0.1-0.1,0.1c2.3,1.4,6.2,2.8,9.8,1.7c0,0-1.9,0.3-5.2-1.2c-0.7-0.4-1.7-0.9-2.9-1.6
					C26.5,28.3,26,28.7,25.6,29"/>
			</defs>
			<clipPath id="SVGID_13_">
				<use xlink:href="#SVGID_20_"  style="overflow:visible;"/>
			</clipPath>
			<rect x="25.4" y="27.9" class="st10" width="9.8" height="4"/>
		</g>
	</g>
	<g>
		<path class="st6" d="M40.6,49.6h-0.6v-3.1h-1V46h2.7v0.5h-1V49.6z"/>
		<path class="st6" d="M44.1,49.6h-2V46h2v0.5h-1.4v1H44V48h-1.3v1.1h1.4V49.6z"/>
		<path class="st6" d="M47.4,49.6h-0.7l-0.9-1.5L45,49.6h-0.6l1.2-1.8L44.4,46h0.6l0.8,1.3l0.8-1.3h0.6l-1.1,1.7L47.4,49.6z"/>
	</g>
</g>
</svg>
