<?xml version="1.0" encoding="utf-8"?>
<!-- Generator: Adobe Illustrator 22.1.0, SVG Export Plug-In . SVG Version: 6.00 Build 0)  -->
<svg version="1.1" id="Layer_1" xmlns="http://www.w3.org/2000/svg" xmlns:xlink="http://www.w3.org/1999/xlink" x="0px" y="0px"
	 viewBox="0 0 50 50" style="enable-background:new 0 0 50 50;" xml:space="preserve">
<style type="text/css">
	.st0{fill:#FFFFFF;}
	.st1{fill:#C9FF00;}
	.st2{fill-rule:evenodd;clip-rule:evenodd;fill:#FFFFFF;}
	.st3{clip-path:url(#SVGID_1_);fill:#FFFFFF;}
	.st4{clip-path:url(#SVGID_2_);fill:#FFFFFF;}
	.st5{clip-path:url(#SVGID_3_);fill:#FFFFFF;}
	.st6{clip-path:url(#SVGID_4_);fill:#FFFFFF;}
</style>
<g>
	<path class="st0" d="M28.4,39.6c0,2.6-1.5,5-4.5,5c-2.8,0-4.4-2.2-4.4-4.9c0-2.7,1.6-4.9,4.5-4.9C26.7,34.8,28.4,36.8,28.4,39.6
		 M21,39.6c0,2,1,3.8,3,3.8c2.1,0,3-1.8,3-3.8c0-2-1-3.7-3-3.7C21.9,36,21,37.6,21,39.6"/>
	<path class="st0" d="M31.8,40.3v4.1h-1.4v-9.6h3.8c2,0,3,1.1,3,2.6c0,1.2-0.7,2-1.6,2.2c0.7,0.2,1.4,0.8,1.4,2.4v0.4
		c0,0.7,0,1.5,0.1,1.9h-1.4c-0.2-0.4-0.2-1.2-0.2-2.1v-0.2c0-1.3-0.4-1.9-2-1.9H31.8z M31.8,39.1h2c1.4,0,2-0.5,2-1.5
		c0-1-0.6-1.5-1.9-1.5h-2.1V39.1z"/>
	<polygon class="st1" points="40.2,46 39.1,46 39.1,45.7 41.5,45.7 41.5,46 40.4,46 40.4,48.9 40.2,48.9 	"/>
	<path class="st0" d="M20,49v-1.8h0.2c0.3,0.4,0.9,1.4,1,1.6h0c0-0.3,0-0.5,0-0.8v-0.8h0.1V49h-0.2c-0.3-0.4-0.9-1.5-1.1-1.7h0
		c0,0.2,0,0.5,0,0.8V49H20z"/>
	<path class="st0" d="M22.5,49v-1.8h0.2c0.3,0.4,0.9,1.4,1,1.6h0c0-0.3,0-0.5,0-0.8v-0.8h0.1V49h-0.2c-0.3-0.4-0.9-1.5-1.1-1.7h0
		c0,0.2,0,0.5,0,0.8V49H22.5z"/>
	<path class="st0" d="M26.4,48c0,0.5-0.3,0.9-0.8,0.9c-0.5,0-0.8-0.4-0.8-0.9c0-0.5,0.3-0.9,0.8-0.9C26.1,47.1,26.4,47.5,26.4,48
		 M24.9,48c0,0.4,0.2,0.8,0.7,0.8c0.5,0,0.7-0.4,0.7-0.8c0-0.4-0.2-0.8-0.7-0.8C25.1,47.3,24.9,47.6,24.9,48"/>
	<path class="st0" d="M27.7,49l-0.7-1.8h0.1l0.3,0.9c0.1,0.3,0.2,0.6,0.3,0.7h0c0-0.1,0.2-0.4,0.3-0.7l0.4-0.9h0.1L27.9,49H27.7z"/>
	<path class="st0" d="M29.4,48.4L29.2,49H29l0.7-1.8h0.2l0.7,1.8h-0.2l-0.2-0.6H29.4z M30.1,48.2c-0.2-0.5-0.3-0.8-0.3-0.9h0
		c0,0.1-0.2,0.5-0.3,0.9H30.1z"/>
	<polygon class="st0" points="31.5,47.3 30.9,47.3 30.9,47.2 32.3,47.2 32.3,47.3 31.7,47.3 31.7,49 31.5,49 	"/>
	<rect x="33" y="47.2" class="st0" width="0.1" height="1.8"/>
	<path class="st0" d="M35.7,48c0,0.5-0.3,0.9-0.8,0.9c-0.5,0-0.8-0.4-0.8-0.9c0-0.5,0.3-0.9,0.8-0.9C35.4,47.1,35.7,47.5,35.7,48
		 M34.2,48c0,0.4,0.2,0.8,0.7,0.8c0.5,0,0.7-0.4,0.7-0.8c0-0.4-0.2-0.8-0.7-0.8C34.4,47.3,34.2,47.6,34.2,48"/>
	<path class="st0" d="M36.6,49v-1.8h0.2c0.3,0.4,0.9,1.4,1,1.6h0c0-0.3,0-0.5,0-0.8v-0.8H38V49h-0.2c-0.3-0.4-0.9-1.5-1.1-1.7h0
		c0,0.2,0,0.5,0,0.8V49H36.6z"/>
	<path class="st1" d="M17.9,10.7c0.7,0,1.5,0,2.3,0c0.7-1.7,1.9-3.8,3.6-5.5l0.9-0.9l0.9,0.9c1.7,1.7,2.8,3.8,3.6,5.5
		c0.8,0,1.6,0,2.3,0c2-0.9,4-1.2,4.9-1.4C36,5.8,33.4,3,30.1,2.7C28.9,1.1,27,0.1,24.9,0c-2.1-0.1-4,0.9-5.3,2.5
		c-3.5,0.1-6.4,3.1-6.6,6.8C14,9.4,15.9,9.8,17.9,10.7"/>
	<path class="st0" d="M3.7,41.8c0.3,1.1,1,1.7,2.3,1.7c1.4,0,2-0.6,2-1.5c0-0.9-0.5-1.4-2.3-1.9c-2.3-0.6-3.1-1.4-3.1-2.7
		c0-1.5,1.1-2.6,3.2-2.6c2.3,0,3.3,1.3,3.4,2.6H7.8c-0.2-0.8-0.7-1.5-2-1.5c-1.1,0-1.7,0.5-1.7,1.4c0,0.9,0.5,1.2,2.2,1.6
		c2.7,0.7,3.2,1.7,3.2,3c0,1.6-1.2,2.8-3.5,2.8c-2.4,0-3.5-1.3-3.7-2.8H3.7z"/>
	<path class="st0" d="M11.3,34.9H15c1.9,0,3.2,1.1,3.2,2.8c0,1.9-1.4,2.9-3.3,2.9h-2.2v3.9h-1.4V34.9z M12.7,39.4h2.1
		c1.2,0,1.9-0.6,1.9-1.7c0-1.1-0.8-1.7-1.9-1.7h-2.1V39.4z"/>
	<path class="st0" d="M40.9,41.7l-1,2.7h-1.4l3.4-9.6h1.8l3.5,9.6h-1.5l-1-2.7H40.9z M44.3,40.5c-0.9-2.4-1.4-3.7-1.6-4.5h0
		c-0.2,0.8-0.8,2.4-1.5,4.5H44.3z"/>
	<polygon class="st1" points="43.8,47.4 42.2,47.4 42.2,48.7 44,48.7 44,48.9 42,48.9 42,45.7 43.9,45.7 43.9,46 42.2,46 42.2,47.1 
		43.8,47.1 	"/>
	<polygon class="st1" points="46.6,48.9 45.6,47.5 45.6,47.5 44.7,48.9 44.4,48.9 45.5,47.3 44.4,45.7 44.7,45.7 45.6,47.1 
		45.6,47.1 46.6,45.7 46.9,45.7 45.8,47.3 46.9,48.9 	"/>
	<polygon class="st0" points="3.7,48.1 2.8,48.1 2.8,48.8 3.8,48.8 3.7,49 2.6,49 2.6,47.2 3.7,47.2 3.7,47.3 2.8,47.3 2.8,48 
		3.7,48 	"/>
	<path class="st0" d="M5,49v-1.8h0.2c0.3,0.4,0.9,1.4,1,1.6h0c0-0.3,0-0.5,0-0.8v-0.8h0.1V49H6.2c-0.3-0.4-0.9-1.5-1.1-1.7h0
		c0,0.2,0,0.5,0,0.8V49H5z"/>
	<path class="st0" d="M7.4,47.2H8c0.5,0,0.8,0.3,0.8,0.9C8.8,48.6,8.5,49,8,49H7.4V47.2z M7.5,48.8H8c0.5,0,0.7-0.3,0.7-0.8
		c0-0.4-0.2-0.8-0.7-0.8H7.5V48.8z"/>
	<polygon class="st0" points="9.7,47.2 9.9,47.2 9.9,48.8 10.8,48.8 10.8,49 9.7,49 	"/>
	<polygon class="st0" points="12.7,48.1 11.8,48.1 11.8,48.8 12.8,48.8 12.7,49 11.6,49 11.6,47.2 12.7,47.2 12.7,47.3 11.8,47.3 
		11.8,48 12.7,48 	"/>
	<path class="st0" d="M13.7,48.5c0.1,0.2,0.2,0.4,0.5,0.4c0.3,0,0.5-0.2,0.5-0.4c0-0.2-0.1-0.3-0.5-0.4c-0.4-0.1-0.5-0.2-0.5-0.5
		c0-0.2,0.2-0.5,0.6-0.5c0.4,0,0.6,0.2,0.6,0.5h-0.1c0-0.2-0.2-0.3-0.4-0.3c-0.3,0-0.4,0.1-0.4,0.3c0,0.2,0.1,0.3,0.4,0.4
		c0.5,0.1,0.6,0.3,0.6,0.5c0,0.3-0.2,0.5-0.6,0.5c-0.4,0-0.6-0.3-0.6-0.5H13.7z"/>
	<path class="st0" d="M15.7,48.5c0.1,0.2,0.2,0.4,0.5,0.4c0.3,0,0.5-0.2,0.5-0.4c0-0.2-0.1-0.3-0.5-0.4c-0.4-0.1-0.5-0.2-0.5-0.5
		c0-0.2,0.2-0.5,0.6-0.5c0.4,0,0.6,0.2,0.6,0.5h-0.1c0-0.2-0.2-0.3-0.4-0.3c-0.3,0-0.4,0.1-0.4,0.3c0,0.2,0.1,0.3,0.4,0.4
		c0.5,0.1,0.6,0.3,0.6,0.5c0,0.3-0.2,0.5-0.6,0.5c-0.4,0-0.6-0.3-0.6-0.5H15.7z"/>
	<rect x="18.9" y="47.2" class="st0" width="0.1" height="1.8"/>
	<path class="st0" d="M46.1,33.9c0.2,0,0.4,0,0.6,0.1c0.2,0.1,0.3,0.2,0.5,0.3c0.1,0.1,0.2,0.3,0.3,0.5c0.1,0.2,0.1,0.4,0.1,0.6
		c0,0.2,0,0.4-0.1,0.6c-0.1,0.2-0.2,0.3-0.3,0.5c-0.1,0.1-0.3,0.2-0.5,0.3c-0.2,0.1-0.4,0.1-0.6,0.1c-0.3,0-0.5-0.1-0.7-0.2
		c-0.2-0.1-0.4-0.3-0.5-0.5c-0.1-0.2-0.2-0.5-0.2-0.7c0-0.2,0-0.4,0.1-0.6c0.1-0.2,0.2-0.3,0.3-0.5c0.1-0.1,0.3-0.2,0.5-0.3
		C45.7,34,45.9,33.9,46.1,33.9 M46.1,34.2c-0.2,0-0.4,0.1-0.6,0.2c-0.2,0.1-0.3,0.3-0.4,0.4c-0.1,0.2-0.2,0.4-0.2,0.6
		c0,0.2,0.1,0.4,0.2,0.6c0.1,0.2,0.3,0.3,0.4,0.4c0.2,0.1,0.4,0.2,0.6,0.2c0.2,0,0.4-0.1,0.6-0.2c0.2-0.1,0.3-0.3,0.4-0.4
		s0.2-0.4,0.2-0.6c0-0.2,0-0.3-0.1-0.5c-0.1-0.1-0.1-0.3-0.3-0.4c-0.1-0.1-0.2-0.2-0.4-0.3C46.4,34.2,46.2,34.2,46.1,34.2
		 M45.7,36.2h-0.3v-1.6H46c0.1,0,0.2,0,0.3,0c0.1,0,0.1,0,0.2,0c0.1,0,0.1,0.1,0.2,0.1c0,0.1,0.1,0.1,0.1,0.2c0,0.1,0,0.2-0.1,0.3
		c-0.1,0.1-0.2,0.1-0.3,0.1c0.1,0,0.1,0.1,0.2,0.1c0,0.1,0.1,0.1,0.2,0.3l0.2,0.3h-0.3l-0.1-0.2c-0.1-0.2-0.2-0.3-0.2-0.3
		c-0.1-0.1-0.1-0.1-0.2-0.1h-0.1V36.2z M45.7,34.8v0.5H46c0.1,0,0.2,0,0.2,0c0.1,0,0.1,0,0.1-0.1s0-0.1,0-0.1c0-0.1,0-0.2-0.1-0.2
		c-0.1,0-0.2,0-0.3,0H45.7z"/>
	<path class="st2" d="M21.8,15.3C22,12.4,24.7,9,24.7,9s2.7,3.4,2.9,6.3c0.2,2.9-2.9,6-2.9,6S21.6,18.1,21.8,15.3 M20.4,13.4
		c-2.8-2.7-8.1-3.1-8.1-3.1c1.6,8.7,8.3,10.4,8.3,10.4s-5.2-3.9-6.2-8.3c0,0,4,1.3,5.6,2.9c0,0-0.1,1.5,0.8,3.5
		c0.8,2.1,2.6,3.4,2.6,3.4l1.2,0.9l1.2-0.9c0,0,1.8-1.3,2.6-3.4c0.8-2.1,0.8-3.5,0.8-3.5c1.6-1.6,5.6-2.9,5.6-2.9
		c-1,4.5-6.2,8.3-6.2,8.3S35.4,19,37,10.3c0,0-5.3,0.5-8.1,3.1c0,0-1.2-4.5-4.3-7.4C21.6,8.9,20.4,13.4,20.4,13.4"/>
</g>
<g>
	<defs>
		<path id="SVGID_9_" d="M21.8,15.3C22,12.4,24.7,9,24.7,9s2.7,3.4,2.9,6.3c0.2,2.9-2.9,6-2.9,6S21.6,18.1,21.8,15.3 M20.4,13.4
			c-2.8-2.7-8.1-3.1-8.1-3.1c1.6,8.7,8.3,10.4,8.3,10.4s-5.2-3.9-6.2-8.3c0,0,4,1.3,5.6,2.9c0,0-0.1,1.5,0.8,3.5
			c0.8,2.1,2.6,3.4,2.6,3.4l1.2,0.9l1.2-0.9c0,0,1.8-1.3,2.6-3.4c0.8-2.1,0.8-3.5,0.8-3.5c1.6-1.6,5.6-2.9,5.6-2.9
			c-1,4.5-6.2,8.3-6.2,8.3S35.4,19,37,10.3c0,0-5.3,0.5-8.1,3.1c0,0-1.2-4.5-4.3-7.4C21.6,8.9,20.4,13.4,20.4,13.4"/>
	</defs>
	<clipPath id="SVGID_1_">
		<use xlink:href="#SVGID_9_"  style="overflow:visible;"/>
	</clipPath>
	<rect x="12.4" y="6" class="st3" width="24.6" height="17"/>
</g>
<g>
	<defs>
		<path id="SVGID_11_" d="M35.9,20.6c-0.3,0-0.6,0-0.9,0.1c-4.2,0.7-12.3,6.7-15.6,8.3c-3.2,1.5-5.2,1.2-5.2,1.2
			c4.1,1.3,8.7-0.8,10.7-2.3c1.9-1.5,6-3.8,8.7-5.1c1.2-0.6,2.5-0.9,3.5,0.1c0.6,0.6,0.9,1.3,0.5,2.1c-0.7,1.3-3,2-4.3,1.8
			c-2.1-0.3-3.2-1-3.2-1l-1.8,1c0,0,2.6,1.9,6.6,1.7C40.2,28.3,40.9,20.6,35.9,20.6C35.9,20.6,35.9,20.6,35.9,20.6"/>
	</defs>
	<clipPath id="SVGID_2_">
		<use xlink:href="#SVGID_11_"  style="overflow:visible;"/>
	</clipPath>
	<rect x="14.3" y="20.6" class="st4" width="26.6" height="10.9"/>
</g>
<g>
	<path class="st2" d="M14.4,28.5c4,0.2,6.6-1.7,6.6-1.7l-1.8-1c0,0-1.1,0.7-3.2,1c-1.4,0.2-3.6-0.6-4.3-1.8
		c-0.4-0.8-0.2-1.5,0.5-2.1c1-1,2.4-0.6,3.5-0.1c1.9,0.9,4.6,2.3,6.6,3.6c0.4-0.3,0.8-0.5,1.3-0.8c0.1-0.1,0.2-0.1,0.3-0.2
		c-3.4-2.1-7.2-4.4-9.7-4.8c-0.3-0.1-0.6-0.1-0.9-0.1C8.5,20.6,9.1,28.3,14.4,28.5"/>
</g>
<g>
	<defs>
		<path id="SVGID_13_" d="M14.4,28.5c4,0.2,6.6-1.7,6.6-1.7l-1.8-1c0,0-1.1,0.7-3.2,1c-1.4,0.2-3.6-0.6-4.3-1.8
			c-0.4-0.8-0.2-1.5,0.5-2.1c1-1,2.4-0.6,3.5-0.1c1.9,0.9,4.6,2.3,6.6,3.6c0.4-0.3,0.8-0.5,1.3-0.8c0.1-0.1,0.2-0.1,0.3-0.2
			c-3.4-2.1-7.2-4.4-9.7-4.8c-0.3-0.1-0.6-0.1-0.9-0.1C8.5,20.6,9.1,28.3,14.4,28.5"/>
	</defs>
	<clipPath id="SVGID_3_">
		<use xlink:href="#SVGID_13_"  style="overflow:visible;"/>
	</clipPath>
	<rect x="8.5" y="20.6" class="st5" width="15.5" height="8"/>
</g>
<g>
	<path class="st2" d="M25.4,28.5c0,0-0.1,0.1-0.1,0.1c2.3,1.4,6.2,2.8,9.8,1.7c0,0-1.9,0.3-5.2-1.2c-0.7-0.4-1.7-0.9-2.9-1.6
		C26.4,27.7,25.8,28.1,25.4,28.5"/>
</g>
<g>
	<defs>
		<path id="SVGID_15_" d="M25.4,28.5c0,0-0.1,0.1-0.1,0.1c2.3,1.4,6.2,2.8,9.8,1.7c0,0-1.9,0.3-5.2-1.2c-0.7-0.4-1.7-0.9-2.9-1.6
			C26.4,27.7,25.8,28.1,25.4,28.5"/>
	</defs>
	<clipPath id="SVGID_4_">
		<use xlink:href="#SVGID_15_"  style="overflow:visible;"/>
	</clipPath>
	<rect x="25.3" y="27.3" class="st6" width="9.8" height="4"/>
</g>
</svg>
