<?xml version="1.0" encoding="utf-8"?>
<!-- Generator: Adobe Illustrator 22.1.0, SVG Export Plug-In . SVG Version: 6.00 Build 0)  -->
<svg version="1.1" id="OBJECT" xmlns="http://www.w3.org/2000/svg" xmlns:xlink="http://www.w3.org/1999/xlink" x="0px" y="0px"
	 viewBox="0 0 676 1490.1" style="enable-background:new 0 0 676 1490.1;" xml:space="preserve">
<style type="text/css">
	.st0{opacity:0.5;fill:none;stroke:#FFFFFF;stroke-width:7.2;stroke-miterlimit:10;enable-background:new    ;}
	.st1{fill:#FFFFFF;}
</style>
<g>
	<g>
		<g>
			<circle class="st0" cx="98.6" cy="1418.1" r="72"/>
			<polygon class="st0" points="574.7,881.3 628.6,788 520.9,788 			"/>
			<g id="XMLID_35_">
				<g id="XMLID_58_">
					<path id="XMLID_59_" class="st1" d="M509.8,38.4c-3.2,0-5.8-2.6-5.8-5.8l0,0c0-3.2,2.6-5.8,5.8-5.8l0,0c3.2,0,5.8,2.6,5.8,5.8
						l0,0C515.7,35.8,513,38.4,509.8,38.4z M509.8,98.3c-3.2,0-5.8-2.6-5.8-5.8l0,0c0-3.2,2.6-5.8,5.8-5.8l0,0
						c3.2,0,5.8,2.6,5.8,5.8l0,0C515.7,95.7,513,98.3,509.8,98.3z M509.8,158.2c-3.2,0-5.8-2.6-5.8-5.8l0,0c0-3.2,2.6-5.8,5.8-5.8
						l0,0c3.2,0,5.8,2.6,5.8,5.8l0,0C515.7,155.6,513,158.2,509.8,158.2z M509.8,218c-3.2,0-5.8-2.6-5.8-5.8l0,0
						c0-3.2,2.6-5.8,5.8-5.8l0,0c3.2,0,5.8,2.6,5.8,5.8l0,0C515.7,215.4,513,218,509.8,218z M509.8,277.9c-3.2,0-5.8-2.6-5.8-5.8
						l0,0c0-3.2,2.6-5.8,5.8-5.8l0,0c3.2,0,5.8,2.6,5.8,5.8l0,0C515.7,275.3,513,277.9,509.8,277.9z M509.8,337.8
						c-3.2,0-5.8-2.6-5.8-5.8l0,0c0-3.2,2.6-5.8,5.8-5.8l0,0c3.2,0,5.8,2.6,5.8,5.8l0,0C515.7,335.2,513,337.8,509.8,337.8z
						 M509.8,397.7c-3.2,0-5.8-2.6-5.8-5.8l0,0c0-3.2,2.6-5.8,5.8-5.8l0,0c3.2,0,5.8,2.6,5.8,5.8l0,0
						C515.7,395.1,513,397.7,509.8,397.7z M509.8,457.6c-3.2,0-5.8-2.6-5.8-5.8l0,0c0-3.2,2.6-5.8,5.8-5.8l0,0
						c3.2,0,5.8,2.6,5.8,5.8l0,0C515.7,455,513,457.6,509.8,457.6z M509.8,517.5c-3.2,0-5.8-2.6-5.8-5.8l0,0c0-3.2,2.6-5.8,5.8-5.8
						l0,0c3.2,0,5.8,2.6,5.8,5.8l0,0C515.7,514.9,513,517.5,509.8,517.5z"/>
				</g>
				<g id="XMLID_47_">
					<path id="XMLID_48_" class="st1" d="M579,38.4c-3.2,0-5.8-2.6-5.8-5.8l0,0c0-3.2,2.6-5.8,5.8-5.8l0,0c3.2,0,5.8,2.6,5.8,5.8
						l0,0C584.9,35.8,582.2,38.4,579,38.4z M579,98.3c-3.2,0-5.8-2.6-5.8-5.8l0,0c0-3.2,2.6-5.8,5.8-5.8l0,0c3.2,0,5.8,2.6,5.8,5.8
						l0,0C584.9,95.7,582.2,98.3,579,98.3z M579,158.2c-3.2,0-5.8-2.6-5.8-5.8l0,0c0-3.2,2.6-5.8,5.8-5.8l0,0c3.2,0,5.8,2.6,5.8,5.8
						l0,0C584.9,155.6,582.2,158.2,579,158.2z M579,218c-3.2,0-5.8-2.6-5.8-5.8l0,0c0-3.2,2.6-5.8,5.8-5.8l0,0
						c3.2,0,5.8,2.6,5.8,5.8l0,0C584.9,215.4,582.2,218,579,218z M579,277.9c-3.2,0-5.8-2.6-5.8-5.8l0,0c0-3.2,2.6-5.8,5.8-5.8l0,0
						c3.2,0,5.8,2.6,5.8,5.8l0,0C584.9,275.3,582.2,277.9,579,277.9z M579,337.8c-3.2,0-5.8-2.6-5.8-5.8l0,0c0-3.2,2.6-5.8,5.8-5.8
						l0,0c3.2,0,5.8,2.6,5.8,5.8l0,0C584.9,335.2,582.2,337.8,579,337.8z M579,397.7c-3.2,0-5.8-2.6-5.8-5.8l0,0
						c0-3.2,2.6-5.8,5.8-5.8l0,0c3.2,0,5.8,2.6,5.8,5.8l0,0C584.9,395.1,582.2,397.7,579,397.7z M579,457.6c-3.2,0-5.8-2.6-5.8-5.8
						l0,0c0-3.2,2.6-5.8,5.8-5.8l0,0c3.2,0,5.8,2.6,5.8,5.8l0,0C584.9,455,582.2,457.6,579,457.6z M579,517.5
						c-3.2,0-5.8-2.6-5.8-5.8l0,0c0-3.2,2.6-5.8,5.8-5.8l0,0c3.2,0,5.8,2.6,5.8,5.8l0,0C584.9,514.9,582.2,517.5,579,517.5z"/>
				</g>
				<g id="XMLID_36_">
					<path id="XMLID_37_" class="st1" d="M648.3,38.4c-3.2,0-5.8-2.6-5.8-5.8l0,0c0-3.2,2.6-5.8,5.8-5.8l0,0c3.2,0,5.8,2.6,5.8,5.8
						l0,0C654.1,35.8,651.5,38.4,648.3,38.4z M648.3,98.3c-3.2,0-5.8-2.6-5.8-5.8l0,0c0-3.2,2.6-5.8,5.8-5.8l0,0
						c3.2,0,5.8,2.6,5.8,5.8l0,0C654.1,95.7,651.5,98.3,648.3,98.3z M648.3,158.2c-3.2,0-5.8-2.6-5.8-5.8l0,0c0-3.2,2.6-5.8,5.8-5.8
						l0,0c3.2,0,5.8,2.6,5.8,5.8l0,0C654.1,155.6,651.5,158.2,648.3,158.2z M648.3,218c-3.2,0-5.8-2.6-5.8-5.8l0,0
						c0-3.2,2.6-5.8,5.8-5.8l0,0c3.2,0,5.8,2.6,5.8,5.8l0,0C654.1,215.4,651.5,218,648.3,218z M648.3,277.9c-3.2,0-5.8-2.6-5.8-5.8
						l0,0c0-3.2,2.6-5.8,5.8-5.8l0,0c3.2,0,5.8,2.6,5.8,5.8l0,0C654.1,275.3,651.5,277.9,648.3,277.9z M648.3,337.8
						c-3.2,0-5.8-2.6-5.8-5.8l0,0c0-3.2,2.6-5.8,5.8-5.8l0,0c3.2,0,5.8,2.6,5.8,5.8l0,0C654.1,335.2,651.5,337.8,648.3,337.8z
						 M648.3,397.7c-3.2,0-5.8-2.6-5.8-5.8l0,0c0-3.2,2.6-5.8,5.8-5.8l0,0c3.2,0,5.8,2.6,5.8,5.8l0,0
						C654.1,395.1,651.5,397.7,648.3,397.7z M648.3,457.6c-3.2,0-5.8-2.6-5.8-5.8l0,0c0-3.2,2.6-5.8,5.8-5.8l0,0
						c3.2,0,5.8,2.6,5.8,5.8l0,0C654.1,455,651.5,457.6,648.3,457.6z M648.3,517.5c-3.2,0-5.8-2.6-5.8-5.8l0,0
						c0-3.2,2.6-5.8,5.8-5.8l0,0c3.2,0,5.8,2.6,5.8,5.8l0,0C654.1,514.9,651.5,517.5,648.3,517.5z"/>
				</g>
			</g>
		</g>
	</g>
</g>
</svg>
