<?xml version="1.0" encoding="utf-8"?>
<!-- Generator: Adobe Illustrator 22.1.0, SVG Export Plug-In . SVG Version: 6.00 Build 0)  -->
<svg version="1.1" xmlns="http://www.w3.org/2000/svg" xmlns:xlink="http://www.w3.org/1999/xlink" x="0px" y="0px"
	 viewBox="0 0 500 500" style="enable-background:new 0 0 500 500;" xml:space="preserve">
<style type="text/css">
	.st0{fill:none;stroke:#4169E1;stroke-width:2;stroke-linecap:round;stroke-miterlimit:10;}
	.st1{fill:none;stroke:#4169E1;stroke-linecap:round;stroke-miterlimit:10;}
</style>
<g id="BACKGROUND">
</g>
<g id="OBJECTS">
	<g>
		<polyline class="st0" points="78.6,174.6 93.1,160.1 121.2,188.2 134.5,174.9 211.1,174.9 228.1,157.9 237.6,167.4 		"/>
		<polyline class="st1" points="64.5,166.5 111.8,166.5 120.2,174.9 127.4,167.7 227.7,167.7 235.1,175.1 242.8,175.1 		"/>
		<polygon class="st1" points="61,163 61,170 55.4,166.5 		"/>
		<polygon class="st1" points="240.7,151.5 259.2,151.5 249.9,166.3 		"/>
		<polygon class="st0" points="244.5,170.8 255.3,170.8 249.9,179.5 		"/>
		<polyline class="st0" points="420.5,174.6 406,160.1 377.9,188.2 364.7,174.9 288,174.9 271,157.9 261.5,167.4 		"/>
		<polyline class="st1" points="434.6,166.5 387.3,166.5 378.9,174.9 371.8,167.7 271.4,167.7 264,175.1 256.6,175.1 		"/>
		<polygon class="st1" points="438.1,163 438.1,170 443.7,166.5 		"/>
	</g>
</g>
</svg>
